<svg id="svg" version="1.1" xmlns="http://www.w3.org/2000/svg" xmlns:xlink="http://www.w3.org/1999/xlink" width="400" height="368" viewBox="0, 0, 400,368"><g id="svgg"><path id="path0" d="M336.401 20.940 C 334.948 21.274,333.636 21.671,333.485 21.823 C 333.334 21.975,332.976 22.099,332.689 22.099 C 332.054 22.099,327.141 24.517,324.862 25.951 C 322.907 27.181,316.022 33.821,316.022 34.477 C 316.022 34.726,315.877 34.985,315.700 35.052 C 315.116 35.275,312.494 39.912,311.360 42.726 C 310.408 45.091,310.028 46.227,309.176 49.263 C 309.103 49.524,308.442 49.731,307.654 49.740 C 299.322 49.839,290.221 50.499,288.383 51.137 C 280.408 53.905,274.533 58.560,270.069 65.645 C 269.211 67.007,268.508 68.225,268.508 68.352 C 268.508 68.556,267.993 69.801,266.995 72.007 C 265.337 75.672,265.121 81.517,265.295 117.927 C 265.384 136.498,265.349 151.866,265.218 152.078 C 265.063 152.328,261.150 152.512,254.129 152.600 C 244.132 152.725,239.231 153.132,238.122 153.929 C 237.919 154.074,236.800 154.506,235.635 154.889 C 234.471 155.272,233.517 155.717,233.517 155.877 C 233.517 156.038,233.310 156.169,233.057 156.169 C 229.725 156.170,219.985 166.223,217.178 172.560 C 214.191 179.300,214.225 178.981,214.226 200.184 C 214.226 218.066,214.398 221.408,215.438 223.757 C 215.617 224.162,215.970 225.074,216.222 225.783 C 216.742 227.247,218.138 230.294,218.416 230.571 C 218.689 230.844,219.490 232.148,219.773 232.781 C 219.909 233.085,220.119 233.416,220.240 233.517 C 220.362 233.619,221.037 234.442,221.741 235.347 C 224.677 239.121,231.121 244.150,234.254 245.111 C 234.761 245.267,235.341 245.509,235.543 245.650 C 235.746 245.791,236.906 246.206,238.122 246.573 C 239.337 246.940,240.746 247.418,241.252 247.635 C 241.817 247.877,246.726 248.086,253.934 248.176 C 268.763 248.359,270.401 248.933,275.173 255.617 C 279.749 262.027,288.032 268.508,291.647 268.508 C 292.007 268.508,292.459 268.664,292.652 268.855 C 293.209 269.407,298.851 269.982,303.721 269.982 C 308.774 269.982,308.770 269.979,309.335 272.744 C 309.910 275.558,310.472 277.674,310.831 278.373 C 311.009 278.721,311.688 280.079,312.340 281.391 C 316.214 289.186,323.259 295.393,332.044 298.750 C 338.247 301.120,350.751 301.173,356.041 298.852 C 356.679 298.572,357.342 298.345,357.514 298.348 C 357.979 298.357,361.859 296.361,362.001 296.041 C 362.069 295.889,362.283 295.764,362.477 295.764 C 362.995 295.764,366.785 292.954,368.630 291.202 C 372.291 287.726,375.809 282.357,377.344 277.901 C 377.693 276.888,378.115 275.727,378.281 275.322 C 380.719 269.391,379.674 256.064,376.258 249.513 C 375.948 248.920,375.694 248.302,375.693 248.139 C 375.675 245.864,364.543 233.886,362.447 233.886 C 362.235 233.886,362.063 233.747,362.063 233.577 C 362.063 233.192,357.882 231.275,354.696 230.199 C 346.327 227.372,335.571 228.238,328.199 232.333 C 326.664 233.186,325.612 233.851,323.020 235.607 C 321.369 236.726,316.949 241.381,315.202 243.842 C 312.999 246.945,310.129 252.671,310.129 253.963 C 310.129 254.494,309.433 254.547,303.775 254.444 C 295.087 254.285,292.194 252.774,287.025 245.691 C 282.983 240.153,277.722 236.032,272.694 234.467 C 271.506 234.097,270.203 233.608,269.797 233.380 C 269.296 233.097,265.358 232.962,257.459 232.956 C 248.664 232.948,245.500 232.825,244.383 232.445 C 238.933 230.592,234.910 227.605,232.239 223.430 C 231.167 221.753,230.525 220.140,229.427 216.364 C 228.961 214.763,228.998 184.635,229.466 184.346 C 229.669 184.221,229.834 183.734,229.834 183.264 C 229.834 182.008,231.534 177.968,232.781 176.262 C 233.085 175.847,234.425 174.404,235.759 173.057 C 237.941 170.854,238.805 170.300,242.541 168.706 C 245.072 167.628,247.158 167.566,277.716 167.668 L 308.840 167.772 309.208 169.613 C 309.411 170.626,309.679 171.621,309.804 171.823 C 309.930 172.026,310.148 172.833,310.290 173.618 C 310.432 174.403,310.685 175.314,310.853 175.644 C 311.021 175.973,311.453 176.989,311.814 177.901 C 313.739 182.765,322.218 192.634,324.472 192.634 C 324.686 192.634,324.862 192.765,324.862 192.926 C 324.862 193.354,331.688 196.685,332.565 196.685 C 332.791 196.685,333.263 196.841,333.615 197.032 C 337.106 198.924,351.297 198.924,354.783 197.032 C 355.135 196.841,355.610 196.685,355.839 196.685 C 360.512 196.685,374.136 184.664,375.875 179.006 C 376.031 178.499,376.266 178.002,376.398 177.901 C 376.851 177.553,378.578 171.822,379.062 169.061 C 379.912 164.210,379.387 153.947,378.224 152.689 C 378.046 152.496,377.901 152.046,377.901 151.688 C 377.901 150.626,375.131 144.620,374.337 143.961 C 374.069 143.738,373.849 143.398,373.849 143.204 C 373.849 142.241,367.494 135.337,365.009 133.601 C 361.298 131.007,357.510 128.913,356.529 128.913 C 356.210 128.913,355.791 128.771,355.599 128.596 C 355.200 128.234,352.796 127.545,350.092 127.016 C 333.499 123.773,316.338 133.730,310.637 149.908 L 309.794 152.302 295.320 152.302 L 280.847 152.302 280.736 116.759 C 280.618 78.740,280.600 79.168,282.466 75.152 C 283.775 72.337,287.524 68.467,290.153 67.219 C 291.315 66.667,292.597 66.031,293.002 65.805 C 293.453 65.554,296.714 65.341,301.405 65.256 C 309.977 65.102,309.828 65.060,310.277 67.767 C 311.621 75.875,321.907 86.570,331.676 90.015 C 332.689 90.373,333.849 90.815,334.254 90.998 C 336.912 92.201,346.825 92.668,351.197 91.796 C 353.806 91.275,354.607 90.998,358.820 89.155 C 359.771 88.738,360.724 88.398,360.937 88.398 C 361.151 88.398,361.326 88.251,361.326 88.072 C 361.326 87.893,361.616 87.650,361.971 87.531 C 362.614 87.315,363.924 86.545,364.273 86.178 C 364.374 86.072,365.201 85.409,366.111 84.705 C 371.081 80.860,376.733 72.856,377.736 68.242 C 377.858 67.679,378.101 66.888,378.277 66.483 C 379.950 62.616,379.932 49.783,378.249 46.690 C 378.057 46.338,377.901 45.805,377.901 45.506 C 377.901 44.442,375.350 39.148,373.265 35.884 C 369.762 30.401,358.941 22.099,355.297 22.099 C 355.047 22.099,354.686 21.953,354.494 21.774 C 353.090 20.469,340.897 19.907,336.401 20.940 M348.040 35.774 C 351.735 36.940,352.865 37.437,355.064 38.866 C 358.477 41.084,362.799 46.174,362.799 47.975 C 362.799 48.248,362.952 48.629,363.139 48.821 C 363.605 49.301,364.318 52.739,364.529 55.523 C 365.212 64.529,358.421 73.496,348.975 76.060 C 345.543 76.992,335.912 76.296,335.912 75.116 C 335.912 74.970,335.461 74.737,334.911 74.599 C 331.911 73.845,325.230 66.986,325.230 64.659 C 325.230 64.345,325.098 64.088,324.936 64.088 C 323.641 64.088,323.042 54.794,324.081 50.829 C 325.187 46.611,330.576 39.042,332.475 39.042 C 332.744 39.042,332.965 38.880,332.965 38.681 C 332.965 38.482,333.379 38.216,333.886 38.089 C 334.392 37.962,334.807 37.736,334.807 37.587 C 334.807 37.439,335.843 37.025,337.109 36.669 C 338.375 36.312,339.742 35.883,340.147 35.714 C 341.246 35.259,346.533 35.299,348.040 35.774 M88.398 100.191 C 77.571 100.985,69.764 101.934,60.037 103.638 C 54.323 104.639,53.428 104.951,51.896 106.484 L 50.460 107.919 50.460 118.048 L 50.460 128.177 41.063 128.177 C 35.895 128.177,31.378 128.316,31.026 128.485 C 30.675 128.655,29.906 129.028,29.318 129.314 C 28.730 129.600,27.736 130.471,27.108 131.250 L 25.967 132.665 25.967 230.881 C 25.967 328.400,25.972 329.105,26.702 330.203 C 27.465 331.351,28.670 332.460,29.988 333.228 C 30.581 333.574,44.515 333.679,91.406 333.689 C 163.206 333.704,153.465 332.648,160.405 341.168 C 161.621 342.660,163.505 344.616,164.594 345.513 C 165.682 346.411,166.766 347.311,167.003 347.514 C 167.584 348.010,168.753 348.752,169.429 349.055 C 169.733 349.191,170.064 349.408,170.166 349.538 C 170.557 350.042,176.352 352.718,178.453 353.365 C 179.669 353.740,181.077 354.188,181.584 354.362 C 187.393 356.353,199.581 355.835,205.396 353.350 C 206.035 353.078,206.729 352.855,206.939 352.855 C 210.026 352.855,220.259 345.214,223.952 340.152 C 226.161 337.125,228.439 334.800,229.431 334.564 C 229.957 334.439,230.568 334.195,230.789 334.023 C 231.010 333.850,257.970 333.665,290.699 333.613 L 350.208 333.517 351.599 332.391 C 354.516 330.031,354.512 330.044,354.512 322.289 L 354.512 315.353 353.385 313.938 C 349.274 308.776,341.528 310.095,340.175 316.186 L 339.762 318.048 283.601 318.248 C 221.541 318.470,227.594 318.246,222.468 320.511 C 220.130 321.544,216.625 324.438,214.650 326.965 C 209.843 333.116,205.320 336.800,200.552 338.447 C 189.404 342.299,178.321 338.689,170.902 328.789 C 168.431 325.492,167.391 324.374,165.470 322.954 C 163.229 321.297,159.582 319.337,158.739 319.337 C 158.420 319.337,157.951 319.130,157.697 318.877 C 157.332 318.512,145.201 318.416,99.520 318.416 C 67.777 318.416,41.598 318.282,41.344 318.118 C 40.621 317.650,40.673 144.280,41.397 143.679 C 41.737 143.397,43.324 143.289,46.093 143.358 L 50.276 143.462 50.460 217.956 L 50.645 292.449 51.680 293.747 C 52.250 294.461,53.446 295.388,54.338 295.808 C 56.117 296.644,56.250 296.641,64.457 295.612 C 66.989 295.294,71.298 294.829,74.033 294.579 C 80.482 293.988,103.782 293.985,109.392 294.574 C 117.189 295.394,125.032 296.592,129.282 297.615 C 130.193 297.834,131.851 298.189,132.965 298.403 C 134.079 298.617,135.148 298.940,135.341 299.120 C 135.533 299.300,135.970 299.448,136.311 299.448 C 137.004 299.448,140.573 300.462,141.449 300.908 C 141.759 301.066,142.582 301.320,143.278 301.473 C 143.974 301.626,144.797 301.879,145.108 302.035 C 145.418 302.191,146.418 302.604,147.330 302.953 C 150.131 304.025,150.335 304.114,154.731 306.192 C 165.563 311.314,176.280 319.641,181.925 327.324 C 187.838 335.372,196.277 334.387,204.602 324.675 C 207.812 320.930,213.421 315.507,216.390 313.279 C 222.056 309.028,230.471 304.574,236.280 302.754 C 237.090 302.500,238.085 302.159,238.490 301.996 C 238.895 301.833,239.801 301.587,240.504 301.448 C 241.206 301.309,242.035 301.064,242.345 300.904 C 242.656 300.744,244.236 300.342,245.856 300.011 C 247.477 299.680,249.383 299.255,250.092 299.067 C 251.378 298.725,255.380 298.171,260.958 297.561 C 262.578 297.383,267.716 297.103,272.376 296.939 L 280.847 296.639 282.790 295.428 C 285.784 293.561,287.229 289.149,285.728 286.459 C 285.017 285.183,282.407 282.505,281.875 282.505 C 281.614 282.505,281.400 282.339,281.400 282.136 C 281.400 281.647,264.922 281.646,260.977 282.136 C 259.346 282.338,256.519 282.687,254.696 282.911 C 252.873 283.135,250.635 283.452,249.724 283.617 C 248.812 283.782,246.823 284.108,245.304 284.342 C 243.785 284.576,242.210 284.899,241.805 285.060 C 240.867 285.433,237.719 286.235,236.280 286.469 C 235.672 286.568,235.009 286.779,234.807 286.938 C 234.604 287.097,233.775 287.346,232.965 287.492 C 232.155 287.638,231.326 287.867,231.123 288.001 C 230.921 288.135,230.092 288.464,229.282 288.732 C 227.448 289.338,225.860 290.008,222.998 291.379 C 221.771 291.968,220.583 292.449,220.359 292.449 C 220.134 292.449,219.896 292.574,219.828 292.726 C 219.761 292.878,218.904 293.416,217.924 293.923 C 215.265 295.298,208.451 299.761,206.559 301.368 C 206.013 301.831,204.545 303.039,203.297 304.052 C 202.048 305.064,200.691 306.180,200.282 306.530 C 199.872 306.880,199.392 307.078,199.216 306.969 C 199.035 306.857,198.895 271.357,198.895 225.741 L 198.895 144.712 200.878 142.246 C 207.701 133.757,219.484 125.240,230.018 121.181 C 233.075 120.004,236.087 118.967,237.017 118.772 C 237.624 118.645,238.536 118.402,239.042 118.233 C 239.549 118.064,241.289 117.649,242.910 117.310 C 249.568 115.919,252.959 110.945,250.592 106.042 C 248.573 101.861,245.692 101.040,238.858 102.700 C 238.048 102.897,236.390 103.255,235.175 103.495 C 233.959 103.736,232.634 104.066,232.228 104.228 C 231.823 104.391,229.834 105.051,227.808 105.694 C 225.783 106.338,223.251 107.268,222.181 107.760 C 221.112 108.253,220.163 108.656,220.072 108.656 C 219.562 108.656,214.479 111.325,211.786 113.006 C 210.064 114.082,208.333 115.159,207.939 115.400 C 207.545 115.641,206.892 116.128,206.488 116.483 C 206.085 116.837,205.645 117.127,205.512 117.127 C 205.378 117.127,204.922 117.417,204.497 117.772 C 204.073 118.126,202.694 119.245,201.432 120.258 C 200.171 121.271,197.271 123.964,194.987 126.243 C 190.200 131.021,190.731 130.763,189.217 129.039 C 188.189 127.868,183.828 123.931,181.734 122.284 C 181.347 121.980,179.788 120.902,178.269 119.890 C 176.750 118.877,175.424 117.965,175.322 117.864 C 175.109 117.650,174.261 117.169,171.346 115.604 C 167.512 113.546,165.951 112.763,163.720 111.778 C 162.505 111.241,161.013 110.576,160.405 110.299 C 157.874 109.147,153.526 107.551,152.919 107.551 C 152.559 107.551,152.108 107.408,151.915 107.233 C 151.723 107.059,150.820 106.717,149.908 106.474 C 148.996 106.232,147.670 105.867,146.961 105.663 C 134.381 102.055,120.279 100.253,102.762 100.017 C 97.192 99.941,90.727 100.020,88.398 100.191 M113.996 115.617 C 117.440 115.825,121.087 116.158,122.099 116.355 C 123.112 116.552,125.350 116.893,127.072 117.112 C 128.794 117.332,130.948 117.666,131.860 117.855 C 132.772 118.044,134.512 118.383,135.727 118.607 C 136.943 118.832,138.269 119.158,138.674 119.333 C 139.079 119.507,139.825 119.733,140.331 119.835 C 142.174 120.205,144.581 120.868,145.132 121.157 C 145.442 121.320,146.266 121.578,146.961 121.731 C 148.156 121.994,148.490 122.123,150.271 123.020 C 150.674 123.223,151.180 123.389,151.396 123.389 C 151.613 123.389,152.568 123.729,153.519 124.145 C 154.470 124.562,155.580 125.038,155.985 125.205 C 157.539 125.844,165.054 129.696,165.377 130.018 C 165.479 130.120,166.142 130.522,166.851 130.911 C 167.560 131.301,168.223 131.725,168.324 131.852 C 168.425 131.979,169.160 132.479,169.955 132.963 C 173.305 135.000,179.242 140.486,182.252 144.324 L 183.794 146.291 183.794 226.552 C 183.794 270.696,183.689 306.814,183.561 306.814 C 183.433 306.814,182.806 306.275,182.168 305.617 C 179.617 302.984,172.786 298.104,168.325 295.726 C 167.414 295.241,166.585 294.755,166.484 294.648 C 166.147 294.292,161.428 292.081,161.005 292.081 C 160.776 292.081,160.589 291.957,160.588 291.805 C 160.587 291.653,159.800 291.224,158.838 290.851 C 157.877 290.479,156.759 290.034,156.354 289.863 C 155.948 289.692,155.037 289.309,154.328 289.011 C 152.667 288.313,148.445 286.808,145.856 285.990 C 144.742 285.638,143.499 285.222,143.094 285.064 C 142.689 284.906,141.611 284.588,140.700 284.356 C 139.788 284.124,138.462 283.774,137.753 283.578 C 135.762 283.030,131.630 282.145,128.177 281.528 C 126.455 281.221,124.217 280.814,123.204 280.624 C 112.966 278.703,90.769 277.866,77.164 278.888 C 74.125 279.117,70.396 279.319,68.877 279.339 L 66.114 279.374 65.930 199.178 C 65.806 145.104,65.868 118.815,66.121 118.470 C 66.507 117.941,66.911 117.864,73.112 117.143 C 75.138 116.908,77.624 116.557,78.637 116.364 C 79.650 116.171,83.770 115.860,87.792 115.672 C 91.815 115.484,95.212 115.219,95.343 115.084 C 95.616 114.800,104.872 115.064,113.996 115.617 M349.355 142.754 C 351.443 143.343,355.064 145.127,355.064 145.566 C 355.064 145.726,355.276 145.856,355.536 145.856 C 356.773 145.856,361.626 151.828,363.057 155.111 C 369.163 169.122,356.128 185.452,340.932 182.830 C 339.128 182.519,337.385 182.138,337.058 181.984 C 333.105 180.119,331.681 179.212,329.560 177.211 C 328.191 175.921,327.072 174.650,327.072 174.388 C 327.072 174.125,326.942 173.855,326.784 173.788 C 326.334 173.596,324.613 169.830,323.940 167.567 C 323.010 164.435,323.531 157.337,324.911 154.328 C 325.143 153.821,325.600 152.837,325.926 152.140 C 327.425 148.938,333.919 143.842,337.467 143.083 C 338.131 142.941,338.844 142.689,339.052 142.522 C 340.041 141.731,346.222 141.870,349.355 142.754 M349.540 244.882 C 351.438 245.380,355.064 247.159,355.064 247.592 C 355.064 247.751,355.267 247.882,355.516 247.882 C 356.117 247.882,360.958 252.706,360.958 253.305 C 360.958 253.564,361.086 253.775,361.242 253.775 C 361.509 253.775,362.160 254.939,363.097 257.090 C 369.993 272.913,352.135 291.033,336.648 283.929 C 332.328 281.947,332.762 282.249,329.306 278.819 C 327.773 277.299,326.211 275.393,325.834 274.584 C 325.457 273.774,325.003 272.828,324.826 272.480 C 323.748 270.370,322.914 261.998,323.684 261.025 C 323.874 260.786,324.145 259.947,324.287 259.163 C 324.548 257.715,324.616 257.535,325.782 255.249 C 330.067 246.844,340.187 242.428,349.540 244.882 " stroke="none" fill="#191919" fill-rule="evenodd"></path><path id="path1" d="M0.000 184.162 L 0.000 368.324 200.000 368.324 L 400.000 368.324 400.000 184.162 L 400.000 0.000 200.000 0.000 L 0.000 0.000 0.000 184.162 M350.460 20.258 C 350.586 20.460,351.172 20.626,351.764 20.626 C 353.021 20.626,354.581 21.166,359.278 23.225 C 364.301 25.428,373.481 33.483,373.481 35.688 C 373.481 35.912,373.620 36.096,373.790 36.096 C 373.960 36.096,374.416 36.757,374.803 37.565 C 375.190 38.373,375.618 39.036,375.753 39.038 C 375.889 39.040,376.110 39.540,376.243 40.147 C 376.377 40.755,376.638 41.252,376.825 41.252 C 377.011 41.252,377.165 41.542,377.166 41.897 C 377.167 42.251,377.416 43.016,377.719 43.596 C 378.021 44.177,378.269 44.931,378.269 45.272 C 378.269 45.614,378.424 46.051,378.613 46.243 C 380.225 47.884,380.269 63.159,378.673 66.851 C 378.498 67.256,378.052 68.541,377.683 69.705 C 377.314 70.870,376.898 71.823,376.759 71.823 C 376.621 71.823,376.402 72.243,376.273 72.756 C 375.402 76.226,365.440 87.293,363.188 87.293 C 363.008 87.293,362.805 87.428,362.738 87.594 C 362.580 87.980,357.982 90.157,354.876 91.316 C 351.691 92.504,341.526 93.257,338.858 92.503 C 337.515 92.123,334.617 91.441,332.873 91.094 C 332.316 90.983,331.860 90.746,331.860 90.566 C 331.860 90.386,331.594 90.239,331.268 90.239 C 328.421 90.239,315.686 81.024,315.659 78.944 C 315.656 78.708,315.529 78.459,315.378 78.392 C 314.500 78.002,311.286 72.176,310.332 69.245 C 309.969 68.131,309.550 66.971,309.400 66.667 C 309.086 66.028,294.719 65.640,293.370 66.234 C 288.721 68.282,284.739 71.138,284.721 72.437 C 284.717 72.673,284.574 72.922,284.402 72.990 C 283.793 73.229,282.063 76.786,281.664 78.619 C 281.386 79.895,281.252 91.685,281.237 116.206 L 281.215 151.934 294.659 152.036 C 308.657 152.143,309.761 152.082,309.761 151.203 C 309.761 149.996,313.257 142.776,314.457 141.504 C 314.710 141.235,314.917 140.859,314.917 140.668 C 314.917 140.477,316.475 138.790,318.378 136.919 C 322.134 133.227,322.325 133.060,323.951 132.023 C 324.553 131.639,325.129 131.238,325.230 131.132 C 325.386 130.969,329.286 129.006,331.135 128.160 C 331.446 128.018,332.275 127.789,332.977 127.650 C 333.679 127.511,334.586 127.262,334.991 127.096 C 339.504 125.249,350.325 125.792,355.985 128.150 C 356.390 128.319,357.468 128.756,358.379 129.122 C 362.403 130.735,369.109 135.998,372.022 139.829 C 372.926 141.017,373.872 142.208,374.125 142.476 C 374.378 142.743,374.586 143.199,374.586 143.489 C 374.586 143.778,374.751 144.015,374.954 144.015 C 375.157 144.015,375.322 144.184,375.322 144.390 C 375.322 144.597,375.737 145.422,376.243 146.225 C 376.750 147.027,377.164 147.869,377.164 148.095 C 377.164 148.322,377.393 149.030,377.673 149.668 C 381.233 157.779,380.678 169.826,376.324 179.006 C 375.699 180.322,375.052 181.455,374.887 181.522 C 374.721 181.590,374.586 181.868,374.586 182.141 C 374.586 182.413,374.378 182.855,374.125 183.123 C 373.872 183.391,373.171 184.273,372.568 185.083 C 371.324 186.756,366.155 191.897,365.718 191.897 C 365.560 191.897,365.211 192.108,364.943 192.365 C 364.142 193.135,360.742 195.212,360.281 195.212 C 360.045 195.212,359.853 195.345,359.853 195.507 C 359.853 195.670,358.983 196.098,357.919 196.459 C 356.855 196.821,355.654 197.258,355.249 197.432 C 351.223 199.156,335.025 199.119,333.168 197.381 C 332.975 197.201,332.577 197.053,332.283 197.053 C 331.529 197.053,323.999 193.294,323.389 192.612 C 323.287 192.499,322.790 192.125,322.284 191.781 C 319.441 189.851,311.971 180.985,311.971 179.541 C 311.971 179.409,311.732 178.779,311.441 178.140 C 310.284 175.604,309.761 174.088,309.761 173.273 C 309.761 172.804,309.614 172.329,309.435 172.218 C 309.256 172.108,308.996 171.101,308.856 169.982 L 308.602 167.948 277.229 168.063 C 255.158 168.143,245.420 168.302,244.383 168.598 C 241.722 169.357,240.147 169.973,240.147 170.256 C 240.147 170.409,239.935 170.534,239.675 170.534 C 237.117 170.534,231.353 178.210,230.132 183.241 C 229.026 187.800,229.684 218.943,230.906 219.890 C 231.037 219.991,231.468 220.820,231.865 221.731 C 232.734 223.726,232.839 223.870,235.178 226.278 C 237.817 228.996,239.046 229.858,241.989 231.056 C 244.986 232.276,246.452 232.412,257.827 232.528 C 269.572 232.647,269.699 232.660,273.168 234.131 C 273.806 234.401,274.594 234.622,274.918 234.622 C 275.241 234.622,275.506 234.788,275.506 234.991 C 275.506 235.193,275.699 235.359,275.935 235.359 C 277.620 235.359,286.924 243.363,286.924 244.813 C 286.924 245.049,287.050 245.298,287.203 245.365 C 287.357 245.433,288.061 246.228,288.769 247.133 C 291.141 250.167,291.764 250.681,295.948 253.070 C 297.280 253.831,298.009 253.926,303.540 254.069 L 309.659 254.226 309.857 253.356 C 310.095 252.308,310.977 249.980,311.234 249.724 C 311.335 249.622,311.724 248.877,312.098 248.066 C 314.898 242.002,322.259 234.693,328.638 231.642 C 329.904 231.037,331.209 230.394,331.538 230.213 C 331.868 230.032,332.780 229.769,333.564 229.627 C 334.349 229.486,335.157 229.248,335.359 229.099 C 336.960 227.924,351.079 227.922,352.670 229.098 C 352.873 229.247,353.681 229.486,354.465 229.627 C 355.250 229.769,356.161 230.028,356.491 230.202 C 356.821 230.377,358.218 231.070,359.597 231.743 C 363.418 233.605,363.536 233.672,363.536 233.973 C 363.536 234.128,363.725 234.254,363.957 234.254 C 365.191 234.254,373.481 242.567,373.481 243.805 C 373.481 244.021,373.635 244.199,373.824 244.199 C 374.013 244.199,374.284 244.572,374.426 245.028 C 374.569 245.483,374.799 245.939,374.938 246.041 C 375.859 246.710,378.703 254.069,379.421 257.643 C 380.328 262.156,379.771 274.457,378.605 275.672 C 378.420 275.865,378.269 276.394,378.269 276.848 C 378.269 277.301,378.122 277.764,377.942 277.875 C 377.763 277.986,377.509 278.646,377.378 279.343 C 377.247 280.039,377.022 280.663,376.876 280.728 C 376.730 280.794,376.232 281.593,375.767 282.505 C 374.551 284.892,374.183 285.480,372.754 287.311 C 370.866 289.730,367.656 292.850,365.562 294.303 C 364.549 295.005,363.665 295.704,363.597 295.856 C 363.530 296.008,363.319 296.133,363.130 296.133 C 362.940 296.133,362.166 296.516,361.411 296.984 C 360.655 297.452,359.457 298.057,358.748 298.328 C 358.039 298.600,356.961 299.033,356.354 299.291 C 350.401 301.821,338.476 301.704,331.482 299.046 C 330.373 298.625,329.176 298.192,328.821 298.084 C 328.467 297.977,328.177 297.742,328.177 297.563 C 328.177 297.384,327.970 297.238,327.716 297.238 C 326.082 297.237,319.826 292.329,316.683 288.582 C 313.980 285.359,314.101 285.521,313.241 283.978 C 312.846 283.269,312.440 282.606,312.339 282.505 C 312.151 282.316,311.445 280.829,310.366 278.348 C 310.033 277.582,309.761 276.639,309.761 276.252 C 309.761 275.866,309.611 275.458,309.429 275.345 C 309.246 275.232,308.982 274.153,308.842 272.947 L 308.588 270.755 303.373 270.595 C 297.701 270.421,293.616 269.933,291.892 269.225 C 291.287 268.976,290.212 268.540,289.503 268.255 C 288.794 267.969,287.965 267.607,287.661 267.450 C 285.918 266.550,284.483 265.689,284.050 265.285 C 283.779 265.032,283.439 264.825,283.296 264.825 C 282.875 264.825,278.008 260.002,276.607 258.196 C 275.900 257.285,275.074 256.222,274.770 255.832 C 272.129 252.449,268.302 249.355,266.758 249.355 C 266.384 249.355,265.920 249.202,265.727 249.014 C 265.533 248.824,260.072 248.620,253.407 248.554 C 245.151 248.472,241.208 248.301,240.700 248.005 C 240.295 247.768,238.969 247.285,237.753 246.931 C 235.433 246.255,230.106 243.630,229.896 243.059 C 229.828 242.876,229.614 242.726,229.420 242.726 C 227.881 242.726,219.153 233.979,219.153 232.437 C 219.153 232.221,218.987 232.044,218.785 232.044 C 218.582 232.044,218.416 231.875,218.416 231.669 C 218.416 231.462,218.002 230.637,217.495 229.834 C 216.989 229.032,216.575 228.190,216.575 227.964 C 216.575 227.737,216.349 227.029,216.074 226.391 C 215.798 225.752,215.368 224.733,215.118 224.125 C 212.514 217.812,212.510 182.635,215.112 176.243 C 215.359 175.635,215.691 174.807,215.849 174.401 C 219.410 165.279,226.692 157.999,235.912 154.343 C 236.317 154.183,237.145 153.849,237.753 153.602 C 240.218 152.598,243.036 152.355,253.669 152.229 L 264.796 152.097 264.903 114.188 C 264.986 84.468,265.109 76.180,265.470 75.819 C 265.723 75.566,265.930 74.981,265.930 74.519 C 265.930 73.707,266.566 71.779,267.628 69.373 C 267.909 68.735,268.140 68.031,268.140 67.808 C 268.140 67.585,268.306 67.403,268.508 67.403 C 268.711 67.403,268.877 67.218,268.877 66.992 C 268.877 65.549,275.154 57.976,277.862 56.151 C 282.065 53.321,283.130 52.684,283.671 52.678 C 284.009 52.674,284.340 52.532,284.408 52.363 C 285.012 50.852,291.366 49.732,301.101 49.419 C 308.449 49.184,308.837 49.135,308.946 48.435 C 309.010 48.029,309.196 47.366,309.361 46.961 C 309.525 46.556,309.961 45.313,310.328 44.199 C 310.957 42.292,313.695 36.497,314.157 36.096 C 314.273 35.994,314.853 35.249,315.445 34.438 C 317.326 31.863,322.515 26.960,325.114 25.304 C 327.373 23.864,328.483 23.294,331.492 22.032 C 331.998 21.819,332.706 21.495,333.065 21.312 C 333.424 21.128,334.465 20.876,335.377 20.751 C 336.290 20.626,337.125 20.381,337.233 20.206 C 337.513 19.753,350.179 19.802,350.460 20.258 M340.932 36.017 C 340.816 36.207,340.011 36.460,339.144 36.581 C 337.347 36.832,334.170 38.283,332.269 39.722 C 330.668 40.934,327.808 43.680,327.808 44.006 C 327.808 44.139,327.394 44.791,326.888 45.455 C 326.381 46.119,325.967 46.788,325.967 46.940 C 325.967 47.093,325.729 47.741,325.439 48.379 C 321.839 56.297,324.263 66.091,331.217 71.733 C 332.280 72.595,333.349 73.465,333.594 73.667 C 333.839 73.868,334.145 74.033,334.275 74.033 C 334.405 74.033,335.033 74.262,335.672 74.542 C 338.834 75.930,339.527 76.059,343.831 76.059 C 348.498 76.059,349.006 75.942,353.194 73.898 C 356.906 72.087,362.431 66.106,362.431 63.899 C 362.431 63.598,362.565 63.352,362.730 63.352 C 363.394 63.352,364.380 56.136,363.971 54.270 C 363.756 53.289,363.476 51.844,363.349 51.060 C 363.221 50.275,362.981 49.363,362.815 49.034 C 362.649 48.704,362.204 47.774,361.827 46.967 C 361.450 46.160,360.935 45.278,360.681 45.007 C 360.428 44.736,360.218 44.402,360.215 44.265 C 360.188 43.192,354.914 39.023,351.381 37.282 C 349.213 36.213,341.396 35.267,340.932 36.017 M113.977 99.822 C 115.608 100.028,118.932 100.356,121.363 100.552 C 125.204 100.860,127.751 101.180,134.622 102.217 C 135.433 102.340,136.427 102.585,136.832 102.762 C 137.238 102.939,138.481 103.251,139.595 103.455 C 142.903 104.061,145.245 104.583,146.225 104.935 C 146.731 105.116,148.140 105.543,149.355 105.884 C 150.571 106.224,151.897 106.632,152.302 106.792 C 152.707 106.951,153.950 107.376,155.064 107.736 C 156.179 108.096,157.248 108.533,157.440 108.707 C 157.633 108.881,158.015 109.024,158.289 109.024 C 158.779 109.024,159.536 109.343,164.944 111.834 C 166.428 112.517,167.781 113.076,167.952 113.076 C 168.123 113.076,168.318 113.200,168.386 113.352 C 168.453 113.504,169.420 114.087,170.534 114.647 C 174.422 116.604,181.310 121.125,184.107 123.557 C 184.584 123.971,185.265 124.558,185.621 124.862 C 185.977 125.166,187.284 126.402,188.527 127.609 L 190.785 129.805 195.485 125.215 C 198.069 122.691,200.639 120.255,201.196 119.801 C 203.487 117.932,207.720 114.917,208.053 114.917 C 208.249 114.917,208.465 114.790,208.533 114.634 C 208.715 114.214,212.335 111.971,212.832 111.971 C 213.067 111.971,213.260 111.824,213.260 111.645 C 213.260 111.466,213.550 111.228,213.904 111.116 C 214.259 111.004,215.129 110.579,215.838 110.170 C 216.547 109.761,217.956 109.068,218.969 108.629 C 219.982 108.191,221.457 107.523,222.248 107.145 C 223.039 106.767,224.241 106.354,224.919 106.227 C 225.596 106.099,226.151 105.848,226.151 105.668 C 226.151 105.488,226.419 105.341,226.746 105.341 C 227.314 105.341,230.297 104.455,231.860 103.823 C 232.265 103.659,233.508 103.344,234.622 103.124 C 236.549 102.743,237.410 102.557,241.252 101.694 C 245.768 100.679,249.156 102.097,250.987 105.768 C 251.634 107.064,251.786 111.423,251.197 111.786 C 250.994 111.912,250.829 112.316,250.829 112.686 C 250.829 113.468,248.035 116.390,247.286 116.390 C 247.006 116.390,246.777 116.540,246.777 116.722 C 246.777 116.905,245.824 117.243,244.659 117.475 C 239.696 118.462,235.878 119.432,235.512 119.798 C 235.361 119.949,234.916 120.074,234.525 120.074 C 234.133 120.074,233.208 120.339,232.468 120.664 C 231.729 120.988,230.792 121.393,230.387 121.564 C 225.698 123.535,221.951 125.335,221.793 125.691 C 221.725 125.843,221.524 125.967,221.345 125.967 C 221.167 125.967,219.813 126.718,218.337 127.636 C 214.460 130.047,214.308 130.147,213.615 130.755 C 213.269 131.059,212.035 132.053,210.873 132.965 C 207.520 135.596,202.588 140.638,199.735 144.351 C 199.227 145.013,199.032 306.447,199.540 306.444 C 199.692 306.443,200.416 305.904,201.150 305.247 C 202.643 303.909,203.151 303.492,205.525 301.652 C 206.436 300.946,207.265 300.281,207.366 300.175 C 207.468 300.068,208.794 299.157,210.313 298.149 C 211.832 297.141,213.158 296.222,213.260 296.106 C 213.361 295.990,213.692 295.784,213.996 295.648 C 214.654 295.354,215.947 294.554,216.206 294.281 C 216.402 294.076,223.938 290.369,226.207 289.363 C 226.946 289.035,227.783 288.766,228.067 288.766 C 228.350 288.766,228.739 288.630,228.932 288.463 C 229.124 288.296,230.276 287.861,231.492 287.496 C 232.707 287.131,233.957 286.708,234.268 286.556 C 234.580 286.404,235.574 286.157,236.478 286.008 C 237.382 285.858,238.287 285.610,238.490 285.456 C 238.864 285.171,239.152 285.106,244.383 284.123 C 255.735 281.989,258.282 281.733,270.142 281.530 C 278.451 281.388,281.007 281.454,281.744 281.827 C 286.840 284.411,288.238 291.035,284.480 294.793 C 282.448 296.825,281.755 296.985,273.665 297.292 C 262.151 297.729,248.229 299.334,245.488 300.541 C 245.083 300.719,244.337 300.949,243.831 301.050 C 241.988 301.420,239.582 302.083,239.030 302.372 C 238.720 302.535,237.896 302.794,237.201 302.947 C 236.505 303.099,235.682 303.355,235.371 303.515 C 234.123 304.157,232.095 304.972,231.746 304.972 C 231.226 304.972,222.283 309.577,221.731 310.129 C 221.630 310.230,220.304 311.142,218.785 312.155 C 214.598 314.946,213.377 316.089,202.578 327.332 C 200.469 329.529,198.494 331.231,197.606 331.620 C 196.796 331.974,195.845 332.422,195.493 332.615 C 194.663 333.070,189.131 333.070,188.301 332.615 C 187.949 332.422,187.044 331.991,186.290 331.657 C 184.969 331.071,182.546 328.816,180.776 326.524 C 179.200 324.482,173.317 318.755,170.534 316.553 C 169.015 315.351,167.689 314.276,167.587 314.163 C 166.599 313.065,153.546 305.714,152.578 305.711 C 152.325 305.710,152.118 305.543,152.118 305.341 C 152.118 305.138,151.853 304.972,151.529 304.972 C 151.205 304.972,150.376 304.724,149.687 304.420 C 148.998 304.116,147.871 303.619,147.182 303.315 C 146.493 303.011,145.674 302.762,145.362 302.762 C 145.050 302.762,144.704 302.615,144.593 302.436 C 144.482 302.256,143.789 301.996,143.053 301.858 C 142.316 301.720,141.444 301.466,141.115 301.295 C 140.581 301.016,138.995 300.550,134.807 299.439 C 131.445 298.547,128.775 297.974,127.985 297.974 C 127.506 297.974,127.028 297.833,126.921 297.660 C 126.814 297.486,125.695 297.237,124.434 297.105 C 123.174 296.974,121.635 296.713,121.016 296.525 C 119.741 296.140,114.549 295.486,108.287 294.923 C 102.748 294.424,81.388 294.426,75.506 294.925 C 67.008 295.646,62.069 296.204,61.217 296.538 C 58.198 297.721,54.026 296.713,51.570 294.208 L 50.094 292.702 50.001 218.266 L 49.908 143.831 45.764 143.726 L 41.621 143.622 41.621 230.737 L 41.621 317.853 99.613 317.950 C 145.411 318.027,157.703 318.145,158.066 318.508 C 158.320 318.762,158.774 318.969,159.076 318.969 C 159.824 318.969,164.273 321.229,164.273 321.610 C 164.273 321.778,164.480 321.920,164.733 321.925 C 165.517 321.942,168.968 325.440,171.455 328.737 C 173.362 331.267,177.012 334.730,178.849 335.755 C 184.229 338.754,186.538 339.411,191.713 339.411 C 195.580 339.411,196.428 339.264,200.737 337.851 C 205.404 336.320,209.104 333.442,212.807 328.461 C 215.652 324.636,219.643 321.135,222.468 319.988 C 222.974 319.782,224.217 319.262,225.230 318.832 L 227.072 318.049 283.103 317.950 L 339.133 317.850 339.739 315.690 C 341.366 309.894,348.538 308.477,353.110 313.050 C 354.966 314.905,355.064 315.408,355.064 323.038 L 355.064 329.225 353.850 330.816 C 353.182 331.692,351.981 332.779,351.180 333.233 L 349.724 334.058 290.537 334.064 C 257.337 334.067,231.264 334.211,231.153 334.391 C 231.044 334.567,230.495 334.806,229.934 334.922 C 228.625 335.193,227.180 336.558,224.793 339.779 C 222.011 343.534,215.610 349.540,214.389 349.540 C 214.173 349.540,213.996 349.702,213.996 349.901 C 213.996 350.100,213.582 350.366,213.076 350.493 C 212.569 350.620,212.155 350.872,212.155 351.053 C 212.155 351.233,211.948 351.385,211.694 351.389 C 211.441 351.394,210.239 351.888,209.024 352.486 C 207.808 353.085,206.605 353.578,206.349 353.583 C 206.093 353.587,205.595 353.737,205.244 353.914 C 199.997 356.565,182.664 356.586,178.821 353.946 C 178.619 353.807,177.956 353.580,177.348 353.442 C 176.426 353.232,174.228 352.206,169.401 349.728 C 169.011 349.529,168.692 349.238,168.692 349.084 C 168.692 348.929,168.509 348.803,168.285 348.803 C 167.113 348.803,161.703 343.748,158.824 339.963 C 156.204 336.520,154.800 335.193,153.491 334.922 C 152.930 334.806,152.382 334.567,152.273 334.391 C 152.161 334.211,125.363 334.070,91.193 334.070 L 30.312 334.070 29.094 333.241 C 28.425 332.785,27.364 331.776,26.738 330.997 L 25.599 329.582 25.491 232.286 C 25.432 178.774,25.483 134.294,25.603 133.442 C 25.845 131.734,28.626 128.545,29.873 128.545 C 30.233 128.545,30.630 128.379,30.755 128.177 C 30.897 127.947,34.565 127.808,40.537 127.808 L 50.092 127.808 50.092 118.024 C 50.092 111.439,50.229 107.976,50.510 107.434 C 51.321 105.875,53.617 104.236,54.990 104.236 C 55.470 104.236,55.986 104.111,56.136 103.959 C 56.287 103.808,57.765 103.471,59.421 103.211 C 61.076 102.952,63.343 102.587,64.457 102.402 C 65.571 102.216,68.140 101.879,70.166 101.653 C 72.192 101.427,74.346 101.096,74.954 100.917 C 75.562 100.739,78.297 100.480,81.031 100.342 C 83.766 100.205,86.667 99.965,87.477 99.810 C 89.701 99.385,110.588 99.394,113.977 99.822 M87.109 116.204 C 76.801 116.934,71.378 117.478,70.425 117.877 C 69.959 118.072,69.027 118.232,68.352 118.232 C 67.677 118.232,66.944 118.451,66.722 118.718 C 66.432 119.067,66.342 141.678,66.401 199.104 L 66.483 279.006 68.324 278.964 C 69.337 278.941,72.155 278.737,74.586 278.512 C 79.652 278.042,104.164 278.008,109.392 278.463 C 116.981 279.124,120.505 279.579,125.046 280.484 C 125.654 280.605,127.477 280.932,129.098 281.210 C 130.718 281.488,132.707 281.884,133.517 282.090 C 135.641 282.629,139.149 283.500,141.068 283.963 C 142.572 284.327,143.474 284.614,145.672 285.431 C 146.077 285.581,147.320 285.987,148.435 286.332 C 150.566 286.993,152.974 287.912,156.722 289.496 C 157.982 290.028,162.586 292.117,163.168 292.420 C 163.471 292.578,164.797 293.265,166.114 293.946 C 169.139 295.511,175.050 299.177,176.980 300.684 C 177.790 301.317,178.677 302.002,178.952 302.207 C 179.226 302.411,180.345 303.390,181.438 304.381 L 183.425 306.184 183.425 226.444 L 183.425 146.704 182.273 145.083 C 180.691 142.858,172.471 134.807,171.782 134.807 C 171.697 134.807,170.512 134.000,169.147 133.014 C 166.518 131.115,162.551 128.773,160.866 128.125 C 160.308 127.911,159.853 127.587,159.853 127.404 C 159.853 127.221,159.616 127.072,159.326 127.072 C 159.036 127.072,157.669 126.561,156.287 125.937 C 153.036 124.468,151.852 123.970,150.276 123.407 C 149.567 123.153,148.656 122.813,148.250 122.651 C 146.633 122.005,141.534 120.487,140.147 120.240 C 139.337 120.095,138.508 119.874,138.306 119.749 C 138.103 119.624,136.860 119.323,135.543 119.081 C 134.227 118.839,132.320 118.455,131.308 118.227 C 129.524 117.827,124.319 117.126,117.864 116.415 C 112.211 115.793,94.614 115.672,87.109 116.204 M338.490 143.169 C 332.973 144.947,325.599 151.101,325.599 153.926 C 325.599 154.269,325.446 154.706,325.260 154.899 C 324.859 155.313,324.089 158.909,323.844 161.510 C 323.667 163.390,324.786 170.166,325.273 170.166 C 325.420 170.166,325.649 170.663,325.783 171.271 C 325.916 171.878,326.178 172.376,326.364 172.376 C 326.551 172.376,326.703 172.552,326.703 172.769 C 326.703 174.723,334.445 181.215,336.776 181.215 C 337.111 181.215,337.385 181.363,337.385 181.542 C 337.385 183.153,348.561 182.688,352.118 180.928 C 354.945 179.530,360.589 174.670,360.589 173.633 C 360.589 173.381,360.715 173.118,360.869 173.051 C 362.176 172.477,364.574 164.109,364.151 161.600 C 363.261 156.332,362.362 153.900,360.240 151.032 C 359.100 149.490,356.328 146.593,355.994 146.593 C 355.861 146.593,355.224 146.199,354.579 145.718 C 350.761 142.869,343.158 141.664,338.490 143.169 M339.227 245.143 C 338.517 245.411,337.564 245.640,337.109 245.651 C 336.653 245.663,336.280 245.838,336.280 246.041 C 336.280 246.243,336.087 246.409,335.852 246.409 C 334.650 246.409,327.844 251.812,327.817 252.787 C 327.812 252.952,327.407 253.615,326.916 254.260 C 326.426 254.905,325.910 255.889,325.771 256.446 C 325.632 257.003,325.400 257.459,325.255 257.459 C 324.900 257.459,324.059 261.540,323.850 264.273 C 323.692 266.339,324.651 271.714,325.263 272.192 C 325.393 272.293,325.624 272.790,325.776 273.297 C 325.928 273.803,326.447 274.745,326.930 275.390 C 327.413 276.035,327.808 276.664,327.808 276.788 C 327.808 277.131,330.767 279.995,332.228 281.066 C 335.075 283.154,341.965 285.370,344.199 284.915 C 344.604 284.833,346.225 284.564,347.802 284.317 C 349.378 284.071,350.755 283.728,350.862 283.555 C 350.969 283.383,351.293 283.241,351.582 283.241 C 352.134 283.241,355.645 281.204,356.464 280.408 C 356.727 280.152,357.230 279.732,357.582 279.474 C 363.608 275.059,365.861 263.597,362.140 256.278 C 360.585 253.218,356.885 248.619,355.978 248.619 C 355.854 248.619,355.224 248.225,354.579 247.744 C 350.964 245.046,343.033 243.703,339.227 245.143 " stroke="none" fill="#fbfbfb" fill-rule="evenodd"></path><path id="path2" d="M341.544 20.163 C 342.920 20.234,345.074 20.234,346.332 20.162 C 347.590 20.090,346.464 20.032,343.831 20.033 C 341.197 20.033,340.168 20.092,341.544 20.163 M379.863 56.169 C 379.865 57.587,379.931 58.122,380.011 57.358 C 380.091 56.594,380.089 55.434,380.008 54.780 C 379.927 54.126,379.861 54.751,379.863 56.169 M323.474 56.354 C 323.474 57.063,323.550 57.353,323.642 56.998 C 323.735 56.644,323.735 56.064,323.642 55.709 C 323.550 55.355,323.474 55.645,323.474 56.354 M329.282 70.534 C 329.969 71.243,330.614 71.823,330.715 71.823 C 330.817 71.823,330.337 71.243,329.650 70.534 C 328.963 69.825,328.318 69.245,328.216 69.245 C 328.115 69.245,328.595 69.825,329.282 70.534 M341.897 76.514 C 342.859 76.590,344.434 76.590,345.396 76.514 C 346.358 76.438,345.571 76.376,343.646 76.376 C 341.722 76.376,340.935 76.438,341.897 76.514 M343.744 92.714 C 344.303 92.798,345.132 92.796,345.585 92.709 C 346.038 92.621,345.580 92.552,344.567 92.555 C 343.554 92.557,343.184 92.629,343.744 92.714 M93.278 99.716 C 94.038 99.795,95.281 99.795,96.041 99.716 C 96.800 99.636,96.179 99.571,94.659 99.571 C 93.140 99.571,92.518 99.636,93.278 99.716 M106.169 99.711 C 106.727 99.796,107.638 99.796,108.195 99.711 C 108.752 99.627,108.297 99.558,107.182 99.558 C 106.068 99.558,105.612 99.627,106.169 99.711 M77.445 100.817 C 78.005 100.901,78.834 100.899,79.287 100.812 C 79.740 100.724,79.282 100.655,78.269 100.658 C 77.256 100.661,76.885 100.732,77.445 100.817 M121.087 100.812 C 121.542 100.900,122.288 100.900,122.744 100.812 C 123.200 100.725,122.827 100.653,121.915 100.653 C 121.004 100.653,120.631 100.725,121.087 100.812 M50.092 118.122 C 49.991 123.632,50.035 128.014,50.190 127.858 C 50.346 127.702,50.428 123.194,50.374 117.839 L 50.275 108.103 50.092 118.122 M95.672 115.552 C 96.331 115.634,97.408 115.634,98.066 115.552 C 98.725 115.470,98.186 115.403,96.869 115.403 C 95.552 115.403,95.014 115.470,95.672 115.552 M101.381 115.556 C 102.343 115.632,103.918 115.632,104.880 115.556 C 105.843 115.480,105.055 115.418,103.131 115.418 C 101.206 115.418,100.419 115.480,101.381 115.556 M75.050 117.019 C 75.508 117.107,76.171 117.104,76.524 117.012 C 76.876 116.920,76.501 116.848,75.691 116.852 C 74.880 116.856,74.592 116.931,75.050 117.019 M123.849 117.013 C 124.203 117.105,124.784 117.105,125.138 117.013 C 125.493 116.920,125.203 116.844,124.494 116.844 C 123.785 116.844,123.494 116.920,123.849 117.013 M66.100 118.692 C 66.004 118.946,65.968 155.203,66.020 199.263 L 66.114 279.374 66.298 198.803 C 66.400 154.489,66.436 118.232,66.379 118.232 C 66.322 118.232,66.196 118.439,66.100 118.692 M264.985 141.805 C 264.985 146.971,265.037 149.084,265.100 146.501 C 265.164 143.918,265.164 139.692,265.100 137.109 C 265.037 134.526,264.985 136.639,264.985 141.805 M341.529 142.427 C 341.883 142.520,342.463 142.520,342.818 142.427 C 343.172 142.334,342.882 142.259,342.173 142.259 C 341.464 142.259,341.174 142.334,341.529 142.427 M50.273 218.048 C 50.273 258.867,50.316 275.566,50.368 255.157 C 50.421 234.747,50.421 201.349,50.368 180.939 C 50.316 160.529,50.273 177.228,50.273 218.048 M183.606 226.519 C 183.606 270.580,183.649 288.605,183.702 266.575 C 183.754 244.544,183.754 208.494,183.702 186.464 C 183.649 164.434,183.606 182.459,183.606 226.519 M255.433 152.118 L 245.856 152.321 255.319 152.403 C 261.321 152.456,264.865 152.351,265.009 152.118 C 265.134 151.915,265.186 151.787,265.123 151.832 C 265.060 151.878,260.700 152.006,255.433 152.118 M288.330 152.394 C 292.243 152.453,298.541 152.453,302.326 152.394 C 306.111 152.334,302.910 152.285,295.212 152.285 C 287.514 152.285,284.417 152.334,288.330 152.394 M379.871 162.431 C 379.871 164.153,379.934 164.857,380.012 163.996 C 380.089 163.135,380.089 161.727,380.012 160.866 C 379.934 160.005,379.871 160.709,379.871 162.431 M235.520 173.204 L 234.438 174.401 235.635 173.320 C 236.294 172.725,236.832 172.186,236.832 172.123 C 236.832 171.838,236.528 172.089,235.520 173.204 M343.554 182.949 C 344.010 183.036,344.756 183.036,345.212 182.949 C 345.668 182.861,345.295 182.789,344.383 182.789 C 343.471 182.789,343.099 182.861,343.554 182.949 M340.244 198.787 C 340.702 198.875,341.365 198.872,341.717 198.780 C 342.069 198.688,341.694 198.616,340.884 198.620 C 340.074 198.624,339.786 198.699,340.244 198.787 M347.790 198.781 C 348.145 198.873,348.725 198.873,349.079 198.781 C 349.434 198.688,349.144 198.612,348.435 198.612 C 347.726 198.612,347.436 198.688,347.790 198.781 M250.941 232.688 C 253.130 232.753,256.610 232.753,258.676 232.687 C 260.741 232.621,258.950 232.568,254.696 232.568 C 250.442 232.569,248.752 232.622,250.941 232.688 M342.449 244.465 C 343.108 244.547,344.185 244.547,344.843 244.465 C 345.502 244.384,344.963 244.317,343.646 244.317 C 342.330 244.317,341.791 244.384,342.449 244.465 M379.866 264.825 C 379.866 266.344,379.931 266.966,380.010 266.206 C 380.090 265.447,380.090 264.203,380.010 263.444 C 379.931 262.684,379.866 263.306,379.866 264.825 M79.839 278.345 C 80.297 278.433,80.960 278.430,81.312 278.338 C 81.664 278.246,81.289 278.174,80.479 278.178 C 79.669 278.182,79.380 278.257,79.839 278.345 M272.267 281.672 C 273.626 281.743,275.946 281.744,277.424 281.673 C 278.902 281.603,277.790 281.546,274.954 281.545 C 272.118 281.544,270.909 281.602,272.267 281.672 M90.147 294.192 C 91.008 294.270,92.417 294.270,93.278 294.192 C 94.139 294.115,93.435 294.051,91.713 294.051 C 89.991 294.051,89.286 294.115,90.147 294.192 M73.389 294.923 C 73.946 295.008,74.857 295.008,75.414 294.923 C 75.971 294.839,75.516 294.770,74.401 294.770 C 73.287 294.770,72.831 294.839,73.389 294.923 M108.570 294.926 C 109.232 295.008,110.227 295.007,110.780 294.922 C 111.334 294.838,110.792 294.771,109.576 294.773 C 108.361 294.775,107.908 294.844,108.570 294.926 M260.313 297.866 C 260.769 297.954,261.515 297.954,261.971 297.866 C 262.426 297.778,262.053 297.706,261.142 297.706 C 260.230 297.706,259.857 297.778,260.313 297.866 M338.398 300.812 C 338.854 300.900,339.599 300.900,340.055 300.812 C 340.511 300.725,340.138 300.653,339.227 300.653 C 338.315 300.653,337.942 300.725,338.398 300.812 M349.083 300.813 C 349.542 300.901,350.205 300.898,350.557 300.806 C 350.909 300.713,350.534 300.641,349.724 300.645 C 348.913 300.649,348.625 300.725,349.083 300.813 M62.864 318.140 C 72.015 318.195,87.098 318.195,96.381 318.140 C 105.664 318.085,98.177 318.040,79.742 318.040 C 61.308 318.040,53.712 318.085,62.864 318.140 M117.976 318.139 C 120.165 318.204,123.645 318.204,125.711 318.138 C 127.776 318.073,125.985 318.019,121.731 318.020 C 117.477 318.020,115.787 318.074,117.976 318.139 M130.110 318.118 C 130.465 318.210,131.045 318.210,131.400 318.118 C 131.754 318.025,131.464 317.949,130.755 317.949 C 130.046 317.949,129.756 318.025,130.110 318.118 M136.760 318.139 C 138.949 318.204,142.430 318.204,144.495 318.138 C 146.561 318.073,144.770 318.019,140.516 318.020 C 136.262 318.020,134.572 318.074,136.760 318.139 M176.243 321.547 C 177.241 322.560,178.140 323.389,178.241 323.389 C 178.342 323.389,177.609 322.560,176.611 321.547 C 175.614 320.534,174.715 319.705,174.613 319.705 C 174.512 319.705,175.245 320.534,176.243 321.547 M167.956 325.046 C 168.643 325.755,169.288 326.335,169.389 326.335 C 169.491 326.335,169.011 325.755,168.324 325.046 C 167.637 324.337,166.992 323.757,166.890 323.757 C 166.789 323.757,167.269 324.337,167.956 325.046 M190.341 332.867 C 191.208 332.945,192.534 332.944,193.288 332.864 C 194.042 332.785,193.333 332.722,191.713 332.723 C 190.092 332.724,189.475 332.789,190.341 332.867 M190.516 339.863 C 191.275 339.943,192.518 339.943,193.278 339.863 C 194.038 339.784,193.416 339.719,191.897 339.719 C 190.378 339.719,189.756 339.784,190.516 339.863 " stroke="none" fill="#9d9d9e" fill-rule="evenodd"></path><path id="path3" d="M335.175 21.000 C 334.786 21.254,335.005 21.292,335.912 21.125 C 337.500 20.834,337.800 20.624,336.618 20.632 C 336.128 20.635,335.479 20.800,335.175 21.000 M350.276 20.770 C 350.276 20.849,350.845 20.980,351.540 21.061 C 352.234 21.142,352.722 21.078,352.623 20.917 C 352.445 20.629,350.276 20.493,350.276 20.770 M319.510 30.295 L 317.311 32.597 319.613 30.398 C 320.879 29.189,321.915 28.153,321.915 28.096 C 321.915 27.824,321.552 28.156,319.510 30.295 M369.045 30.663 C 369.949 31.625,370.736 32.413,370.795 32.413 C 371.071 32.413,370.779 32.082,369.153 30.556 L 367.403 28.913 369.045 30.663 M342.265 35.630 C 343.227 35.706,344.802 35.706,345.764 35.630 C 346.727 35.554,345.939 35.492,344.015 35.492 C 342.090 35.492,341.303 35.554,342.265 35.630 M358.195 41.621 C 359.193 42.634,360.092 43.462,360.193 43.462 C 360.295 43.462,359.561 42.634,358.564 41.621 C 357.566 40.608,356.667 39.779,356.565 39.779 C 356.464 39.779,357.198 40.608,358.195 41.621 M378.988 50.194 C 379.167 51.711,379.174 51.719,379.299 50.506 C 379.370 49.822,379.287 49.121,379.116 48.950 C 378.944 48.778,378.886 49.338,378.988 50.194 M295.505 49.998 C 297.084 50.067,299.570 50.067,301.030 49.997 C 302.489 49.927,301.197 49.871,298.158 49.871 C 295.120 49.872,293.926 49.929,295.505 49.998 M323.481 53.959 C 323.486 54.770,323.561 55.058,323.649 54.600 C 323.737 54.142,323.734 53.479,323.642 53.126 C 323.549 52.774,323.477 53.149,323.481 53.959 M364.189 55.358 C 364.362 59.126,364.549 59.587,364.593 56.354 C 364.613 54.834,364.503 53.392,364.348 53.148 C 364.193 52.904,364.121 53.899,364.189 55.358 M323.481 58.748 C 323.486 59.558,323.561 59.846,323.649 59.388 C 323.737 58.930,323.734 58.267,323.642 57.915 C 323.549 57.563,323.477 57.937,323.481 58.748 M274.562 59.392 L 273.481 60.589 274.678 59.508 C 275.336 58.913,275.875 58.374,275.875 58.310 C 275.875 58.026,275.571 58.276,274.562 59.392 M379.091 62.615 C 379.091 63.324,379.167 63.614,379.259 63.260 C 379.352 62.905,379.352 62.325,379.259 61.971 C 379.167 61.616,379.091 61.906,379.091 62.615 M298.803 65.468 C 300.778 65.534,304.010 65.534,305.985 65.468 C 307.960 65.402,306.344 65.348,302.394 65.348 C 298.444 65.348,296.828 65.402,298.803 65.468 M293.043 65.863 C 292.940 66.029,293.345 66.093,293.942 66.006 C 294.539 65.918,295.028 65.782,295.028 65.704 C 295.028 65.423,293.226 65.568,293.043 65.863 M265.980 74.648 C 265.953 75.087,265.835 75.750,265.718 76.121 C 265.517 76.760,265.528 76.761,265.926 76.140 C 266.158 75.780,266.276 75.117,266.189 74.667 C 266.030 73.850,266.030 73.850,265.980 74.648 M371.638 79.282 C 371.096 80.023,371.007 80.280,371.405 79.957 C 372.009 79.466,372.922 78.085,372.642 78.085 C 372.572 78.085,372.120 78.623,371.638 79.282 M265.286 80.479 C 265.290 81.289,265.366 81.577,265.454 81.119 C 265.542 80.661,265.539 79.998,265.446 79.646 C 265.354 79.294,265.282 79.669,265.286 80.479 M280.750 115.908 C 280.702 135.800,280.787 152.151,280.939 152.245 C 281.189 152.400,281.187 127.160,280.934 92.818 C 280.881 85.626,280.798 96.017,280.750 115.908 M264.930 83.794 C 264.933 84.807,265.005 85.177,265.089 84.617 C 265.174 84.058,265.172 83.229,265.084 82.776 C 264.997 82.323,264.928 82.781,264.930 83.794 M264.951 88.950 C 264.953 90.571,265.017 91.188,265.095 90.322 C 265.173 89.455,265.172 88.129,265.093 87.375 C 265.014 86.621,264.950 87.330,264.951 88.950 M337.109 91.967 C 337.463 92.059,338.043 92.059,338.398 91.967 C 338.752 91.874,338.462 91.798,337.753 91.798 C 337.044 91.798,336.754 91.874,337.109 91.967 M350.368 91.967 C 350.723 92.059,351.303 92.059,351.657 91.967 C 352.012 91.874,351.722 91.798,351.013 91.798 C 350.304 91.798,350.014 91.874,350.368 91.967 M264.997 111.971 C 264.997 122.808,265.044 127.242,265.101 121.823 C 265.158 116.404,265.158 107.537,265.101 102.118 C 265.044 96.699,264.997 101.133,264.997 111.971 M99.171 99.720 C 100.336 99.793,102.242 99.793,103.407 99.720 C 104.572 99.647,103.619 99.587,101.289 99.587 C 98.959 99.587,98.006 99.647,99.171 99.720 M90.147 100.076 C 90.603 100.164,91.349 100.164,91.805 100.076 C 92.261 99.988,91.888 99.916,90.976 99.916 C 90.064 99.916,89.692 99.988,90.147 100.076 M109.304 100.076 C 109.763 100.164,110.426 100.161,110.778 100.069 C 111.130 99.977,110.755 99.905,109.945 99.909 C 109.134 99.913,108.846 99.988,109.304 100.076 M81.031 100.568 C 80.235 100.745,80.798 100.779,82.505 100.656 C 84.024 100.546,85.336 100.395,85.421 100.320 C 85.689 100.082,82.373 100.270,81.031 100.568 M114.579 100.318 C 114.664 100.392,116.059 100.536,117.680 100.639 C 119.300 100.741,120.212 100.697,119.705 100.541 C 118.789 100.259,114.287 100.063,114.579 100.318 M72.836 101.549 C 73.292 101.637,74.038 101.637,74.494 101.549 C 74.949 101.461,74.576 101.389,73.665 101.389 C 72.753 101.389,72.380 101.461,72.836 101.549 M126.243 101.549 C 126.699 101.637,127.445 101.637,127.901 101.549 C 128.356 101.461,127.983 101.389,127.072 101.389 C 126.160 101.389,125.787 101.461,126.243 101.549 M243.462 101.433 C 243.462 101.512,244.031 101.643,244.726 101.724 C 245.420 101.805,245.908 101.741,245.809 101.580 C 245.631 101.292,243.462 101.156,243.462 101.433 M66.483 102.394 C 65.463 102.653,65.449 102.678,66.298 102.713 C 66.805 102.734,67.468 102.590,67.772 102.394 C 68.399 101.989,68.075 101.989,66.483 102.394 M60.497 103.385 C 60.852 103.477,61.432 103.477,61.786 103.385 C 62.141 103.292,61.851 103.216,61.142 103.216 C 60.433 103.216,60.143 103.292,60.497 103.385 M137.017 103.273 C 137.017 103.351,137.505 103.487,138.102 103.575 C 138.699 103.662,139.104 103.598,139.001 103.432 C 138.819 103.137,137.017 102.992,137.017 103.273 M234.254 103.504 C 233.865 103.759,234.084 103.796,234.991 103.630 C 236.579 103.338,236.879 103.129,235.697 103.136 C 235.207 103.139,234.558 103.305,234.254 103.504 M231.031 104.279 C 230.373 104.470,229.834 104.706,229.834 104.806 C 229.834 105.073,231.803 104.561,232.210 104.188 C 232.611 103.820,232.625 103.819,231.031 104.279 M250.522 111.952 C 250.307 112.570,250.209 113.076,250.305 113.076 C 250.553 113.076,251.248 111.162,251.066 110.980 C 250.982 110.896,250.738 111.334,250.522 111.952 M97.882 115.191 C 99.351 115.261,101.754 115.261,103.223 115.191 C 104.692 115.121,103.490 115.063,100.552 115.063 C 97.615 115.063,96.413 115.121,97.882 115.191 M107.279 115.550 C 107.839 115.634,108.668 115.632,109.121 115.545 C 109.574 115.457,109.116 115.388,108.103 115.391 C 107.090 115.394,106.720 115.465,107.279 115.550 M80.194 116.288 C 80.848 116.369,82.008 116.371,82.773 116.291 C 83.537 116.211,83.002 116.145,81.584 116.143 C 80.166 116.141,79.541 116.207,80.194 116.288 M118.515 116.289 C 119.177 116.371,120.171 116.369,120.725 116.285 C 121.278 116.201,120.737 116.134,119.521 116.136 C 118.306 116.138,117.853 116.207,118.515 116.289 M126.151 117.124 C 126.855 117.429,129.571 117.638,129.251 117.363 C 129.167 117.290,128.269 117.135,127.256 117.018 C 126.071 116.881,125.677 116.919,126.151 117.124 M243.646 117.127 C 243.182 117.327,243.114 117.444,243.462 117.444 C 243.766 117.444,244.346 117.301,244.751 117.127 C 245.216 116.928,245.284 116.811,244.936 116.811 C 244.632 116.811,244.052 116.953,243.646 117.127 M71.367 117.388 C 71.825 117.476,72.488 117.472,72.840 117.380 C 73.193 117.288,72.818 117.216,72.007 117.220 C 71.197 117.224,70.909 117.299,71.367 117.388 M131.891 117.996 C 131.975 118.069,132.541 118.240,133.149 118.376 C 133.956 118.556,134.105 118.522,133.702 118.249 C 133.204 117.912,131.521 117.677,131.891 117.996 M236.096 118.969 C 235.337 119.212,235.305 119.269,235.912 119.295 C 236.317 119.312,236.897 119.165,237.201 118.969 C 237.846 118.552,237.398 118.552,236.096 118.969 M136.648 119.111 C 136.648 119.189,137.137 119.325,137.734 119.413 C 138.331 119.500,138.735 119.436,138.633 119.270 C 138.450 118.975,136.648 118.830,136.648 119.111 M200.184 121.035 L 198.711 122.353 200.276 121.183 C 201.624 120.175,202.110 119.689,201.750 119.711 C 201.699 119.714,200.994 120.310,200.184 121.035 M187.661 127.440 C 188.659 128.453,189.558 129.282,189.659 129.282 C 189.761 129.282,189.027 128.453,188.029 127.440 C 187.032 126.427,186.133 125.599,186.031 125.599 C 185.930 125.599,186.663 126.427,187.661 127.440 M337.753 126.703 C 337.024 126.937,336.986 126.998,337.569 126.998 C 337.974 126.998,338.720 126.866,339.227 126.703 C 339.956 126.470,339.994 126.409,339.411 126.409 C 339.006 126.409,338.260 126.541,337.753 126.703 M348.250 126.703 C 348.656 126.878,349.236 127.020,349.540 127.020 C 349.888 127.020,349.820 126.903,349.355 126.703 C 348.950 126.529,348.370 126.387,348.066 126.387 C 347.718 126.387,347.786 126.504,348.250 126.703 M213.076 130.617 C 212.413 131.180,212.278 131.405,212.737 131.176 C 213.413 130.841,214.679 129.628,214.318 129.663 C 214.242 129.671,213.683 130.100,213.076 130.617 M25.644 133.900 C 25.518 134.229,25.455 178.035,25.505 231.246 L 25.596 327.993 25.781 230.755 C 25.979 127.071,25.988 133.005,25.644 133.900 M207.537 135.267 L 205.709 137.201 207.643 135.373 C 209.440 133.675,209.745 133.333,209.471 133.333 C 209.412 133.333,208.542 134.203,207.537 135.267 M171.753 134.325 C 172.063 134.826,174.954 137.159,174.954 136.908 C 174.954 136.814,174.174 136.098,173.222 135.317 C 172.269 134.537,171.608 134.090,171.753 134.325 M318.775 136.740 L 316.206 139.411 318.877 136.842 C 320.345 135.430,321.547 134.228,321.547 134.172 C 321.547 133.902,321.160 134.260,318.775 136.740 M369.061 137.201 C 369.748 137.910,370.393 138.490,370.494 138.490 C 370.596 138.490,370.116 137.910,369.429 137.201 C 368.742 136.492,368.097 135.912,367.995 135.912 C 367.894 135.912,368.374 136.492,369.061 137.201 M265.348 144.567 C 265.348 148.619,265.402 150.326,265.468 148.362 C 265.534 146.398,265.534 143.083,265.468 140.996 C 265.403 138.908,265.348 140.516,265.348 144.567 M177.532 139.411 C 178.219 140.120,178.865 140.700,178.966 140.700 C 179.067 140.700,178.588 140.120,177.901 139.411 C 177.213 138.702,176.568 138.122,176.467 138.122 C 176.366 138.122,176.845 138.702,177.532 139.411 M202.745 140.055 L 201.289 141.621 202.855 140.165 C 204.310 138.811,204.589 138.490,204.310 138.490 C 204.250 138.490,203.546 139.194,202.745 140.055 M372.150 140.809 C 372.931 141.762,373.646 142.541,373.740 142.541 C 373.991 142.541,371.659 139.650,371.158 139.341 C 370.923 139.196,371.369 139.856,372.150 140.809 M343.370 142.059 C 343.725 142.151,344.305 142.151,344.659 142.059 C 345.014 141.966,344.724 141.890,344.015 141.890 C 343.306 141.890,343.016 141.966,343.370 142.059 M339.084 142.475 C 338.981 142.641,339.386 142.705,339.983 142.617 C 340.580 142.530,341.068 142.394,341.068 142.315 C 341.068 142.035,339.266 142.179,339.084 142.475 M42.910 143.519 C 46.441 143.790,50.379 143.808,50.221 143.554 C 50.126 143.402,48.111 143.307,45.743 143.342 C 43.374 143.378,42.099 143.457,42.910 143.519 M40.975 230.773 C 40.905 298.006,40.984 317.817,41.326 318.158 C 41.655 318.487,44.745 318.579,53.389 318.516 L 65.009 318.432 53.223 318.240 L 41.436 318.048 41.251 230.939 L 41.066 143.831 40.975 230.773 M199.141 144.260 C 198.799 144.601,198.830 306.730,199.171 306.941 C 199.323 307.035,199.448 270.415,199.448 225.563 C 199.448 180.712,199.434 144.015,199.417 144.015 C 199.400 144.015,199.276 144.125,199.141 144.260 M328.157 149.079 L 326.888 150.460 328.269 149.191 C 329.554 148.010,329.819 147.698,329.538 147.698 C 329.477 147.698,328.855 148.320,328.157 149.079 M359.852 150.184 C 360.334 150.843,360.785 151.381,360.856 151.381 C 361.135 151.381,360.222 150.000,359.618 149.509 C 359.220 149.186,359.309 149.443,359.852 150.184 M241.621 152.855 C 240.346 153.123,240.344 153.126,241.436 153.169 C 242.044 153.192,242.790 153.051,243.094 152.855 C 243.707 152.458,243.504 152.458,241.621 152.855 M379.091 156.538 C 379.091 157.247,379.167 157.537,379.259 157.182 C 379.352 156.828,379.352 156.248,379.259 155.893 C 379.167 155.539,379.091 155.829,379.091 156.538 M323.612 158.962 C 323.296 159.786,323.344 166.211,323.670 166.724 C 323.819 166.957,323.941 165.176,323.941 162.764 C 323.941 160.352,323.917 158.379,323.888 158.379 C 323.859 158.379,323.735 158.642,323.612 158.962 M364.088 162.591 C 364.088 164.691,364.210 166.219,364.359 165.985 C 364.695 165.459,364.679 160.265,364.339 159.404 C 364.201 159.056,364.088 160.490,364.088 162.591 M277.072 167.863 C 308.025 167.958,308.656 167.974,308.656 168.673 C 308.656 169.065,308.807 169.479,308.993 169.594 C 309.189 169.716,309.217 169.379,309.058 168.787 L 308.787 167.772 277.137 167.769 L 245.488 167.765 277.072 167.863 M379.064 168.570 C 379.032 169.212,378.910 170.041,378.794 170.412 C 378.594 171.048,378.605 171.050,379.000 170.434 C 379.231 170.075,379.353 169.246,379.271 168.592 L 379.123 167.403 379.064 168.570 M358.181 176.888 L 356.354 178.821 358.287 176.994 C 360.084 175.295,360.390 174.954,360.115 174.954 C 360.057 174.954,359.187 175.824,358.181 176.888 M214.420 179.804 C 214.389 180.345,214.269 181.091,214.153 181.462 C 213.952 182.099,213.964 182.100,214.360 181.482 C 214.591 181.123,214.711 180.377,214.628 179.825 L 214.475 178.821 214.420 179.804 M314.516 183.364 C 314.714 183.735,315.166 184.273,315.520 184.561 C 315.918 184.884,315.829 184.627,315.287 183.886 C 314.319 182.564,313.956 182.319,314.516 183.364 M229.266 184.623 C 229.169 184.876,229.133 192.044,229.186 200.553 L 229.282 216.022 229.466 200.092 C 229.567 191.330,229.603 184.162,229.546 184.162 C 229.489 184.162,229.363 184.369,229.266 184.623 M213.796 200.368 C 213.796 208.370,213.844 211.644,213.904 207.643 C 213.963 203.642,213.963 197.095,213.904 193.094 C 213.844 189.093,213.796 192.366,213.796 200.368 M343.370 198.795 C 344.130 198.874,345.373 198.874,346.133 198.795 C 346.892 198.716,346.271 198.651,344.751 198.651 C 343.232 198.651,342.610 198.716,343.370 198.795 M214.243 219.705 C 214.522 221.526,214.735 221.836,214.727 220.411 C 214.724 219.820,214.563 219.088,214.369 218.785 C 214.130 218.408,214.089 218.702,214.243 219.705 M338.122 228.729 C 337.381 228.966,337.345 229.026,337.937 229.035 C 338.343 229.041,339.006 228.903,339.411 228.729 C 340.349 228.326,339.381 228.326,338.122 228.729 M348.066 228.729 C 348.573 228.891,349.319 229.024,349.724 229.024 C 350.307 229.024,350.269 228.963,349.540 228.729 C 349.033 228.567,348.287 228.434,347.882 228.434 C 347.299 228.434,347.337 228.496,348.066 228.729 M331.215 230.582 C 329.982 231.078,330.213 231.330,331.492 230.884 C 332.099 230.672,332.597 230.432,332.597 230.351 C 332.597 230.132,332.148 230.207,331.215 230.582 M355.433 230.326 C 355.433 230.421,355.968 230.685,356.621 230.913 C 357.275 231.141,357.648 231.176,357.450 230.991 C 357.031 230.598,355.433 230.071,355.433 230.326 M245.396 232.666 C 245.750 232.759,246.331 232.759,246.685 232.666 C 247.040 232.574,246.750 232.498,246.041 232.498 C 245.331 232.498,245.041 232.574,245.396 232.666 M263.076 232.676 C 263.633 232.761,264.544 232.761,265.101 232.676 C 265.658 232.592,265.203 232.523,264.088 232.523 C 262.974 232.523,262.518 232.592,263.076 232.676 M249.263 233.052 C 250.327 233.127,252.067 233.127,253.131 233.052 C 254.194 232.978,253.324 232.917,251.197 232.917 C 249.070 232.917,248.200 232.978,249.263 233.052 M269.812 233.542 C 269.900 233.684,270.463 233.873,271.063 233.961 C 271.662 234.049,272.081 234.004,271.992 233.862 C 271.904 233.719,271.342 233.530,270.742 233.442 C 270.143 233.354,269.724 233.399,269.812 233.542 M367.299 237.390 C 368.052 238.177,368.728 238.747,368.801 238.656 C 368.874 238.564,368.258 237.920,367.432 237.224 L 365.930 235.958 367.299 237.390 M225.597 239.721 C 225.998 240.196,226.660 240.755,227.068 240.963 C 227.850 241.364,227.736 241.240,225.969 239.773 C 224.906 238.890,224.893 238.889,225.597 239.721 M315.214 243.370 C 314.565 244.126,314.079 244.936,314.274 244.936 C 314.349 244.936,314.778 244.438,315.227 243.831 C 316.115 242.630,316.107 242.331,315.214 243.370 M345.887 244.330 C 345.971 244.402,346.621 244.568,347.330 244.698 C 348.237 244.864,348.455 244.827,348.066 244.572 C 347.567 244.245,345.522 244.018,345.887 244.330 M350.098 245.313 C 350.190 245.462,350.677 245.663,351.180 245.759 C 351.684 245.855,352.020 245.812,351.928 245.663 C 351.836 245.514,351.349 245.313,350.845 245.217 C 350.342 245.121,350.006 245.164,350.098 245.313 M239.441 247.278 C 239.526 247.351,240.092 247.521,240.700 247.657 C 241.507 247.838,241.656 247.804,241.252 247.531 C 240.755 247.194,239.072 246.959,239.441 247.278 M290.055 249.355 C 291.258 250.571,292.325 251.565,292.426 251.565 C 292.528 251.565,291.626 250.571,290.424 249.355 C 289.221 248.140,288.154 247.145,288.053 247.145 C 287.951 247.145,288.852 248.140,290.055 249.355 M250.207 248.526 C 253.207 248.588,258.014 248.588,260.888 248.526 C 263.762 248.464,261.308 248.413,255.433 248.413 C 249.558 248.413,247.206 248.464,250.207 248.526 M329.262 250.368 L 327.993 251.750 329.374 250.480 C 330.659 249.299,330.924 248.987,330.643 248.987 C 330.582 248.987,329.960 249.609,329.262 250.368 M297.422 254.144 C 297.827 254.318,298.407 254.460,298.711 254.460 C 299.059 254.460,298.991 254.343,298.527 254.144 C 298.122 253.970,297.541 253.827,297.238 253.827 C 296.889 253.827,296.957 253.944,297.422 254.144 M363.081 258.028 C 363.177 258.531,363.378 259.018,363.527 259.110 C 363.676 259.202,363.719 258.866,363.623 258.363 C 363.527 257.859,363.326 257.372,363.177 257.280 C 363.028 257.188,362.984 257.524,363.081 258.028 M379.091 258.564 C 379.091 259.273,379.167 259.563,379.259 259.208 C 379.352 258.854,379.352 258.273,379.259 257.919 C 379.167 257.564,379.091 257.855,379.091 258.564 M323.547 261.262 C 323.444 261.530,323.409 263.312,323.469 265.221 L 323.578 268.692 323.760 264.732 C 323.939 260.809,323.909 260.317,323.547 261.262 M364.401 264.825 C 364.401 266.547,364.465 267.251,364.542 266.390 C 364.620 265.529,364.620 264.121,364.542 263.260 C 364.465 262.399,364.401 263.103,364.401 264.825 M295.672 269.873 C 296.128 269.961,296.874 269.961,297.330 269.873 C 297.785 269.785,297.413 269.714,296.501 269.714 C 295.589 269.714,295.216 269.785,295.672 269.873 M301.013 270.255 C 302.380 270.326,304.618 270.326,305.985 270.255 C 307.353 270.184,306.234 270.126,303.499 270.126 C 300.764 270.126,299.645 270.184,301.013 270.255 M363.340 270.902 C 363.245 271.206,363.087 271.712,362.988 272.026 C 362.889 272.341,362.952 272.509,363.128 272.400 C 363.304 272.291,363.528 271.786,363.625 271.276 C 363.817 270.269,363.619 270.009,363.340 270.902 M379.064 271.333 C 379.032 271.974,378.910 272.803,378.794 273.174 C 378.594 273.811,378.605 273.812,379.000 273.196 C 379.231 272.838,379.353 272.009,379.271 271.355 L 379.123 270.166 379.064 271.333 M308.661 271.301 C 308.664 271.690,308.835 272.256,309.041 272.560 C 309.314 272.963,309.348 272.814,309.167 272.007 C 308.865 270.653,308.654 270.359,308.661 271.301 M87.201 278.360 C 90.290 278.422,95.345 278.422,98.435 278.360 C 101.524 278.299,98.996 278.248,92.818 278.248 C 86.639 278.248,84.111 278.299,87.201 278.360 M78.361 278.713 C 78.817 278.801,79.563 278.801,80.018 278.713 C 80.474 278.625,80.101 278.553,79.190 278.553 C 78.278 278.553,77.905 278.625,78.361 278.713 M104.696 278.707 C 105.051 278.800,105.631 278.800,105.985 278.707 C 106.340 278.614,106.050 278.538,105.341 278.538 C 104.632 278.538,104.342 278.614,104.696 278.707 M68.048 279.456 C 68.706 279.538,69.784 279.538,70.442 279.456 C 71.100 279.374,70.562 279.308,69.245 279.308 C 67.928 279.308,67.390 279.374,68.048 279.456 M113.727 279.457 C 114.389 279.539,115.383 279.537,115.937 279.453 C 116.490 279.369,115.948 279.302,114.733 279.304 C 113.517 279.306,113.065 279.375,113.727 279.457 M126.427 281.285 C 126.782 281.378,127.362 281.378,127.716 281.285 C 128.071 281.193,127.781 281.117,127.072 281.117 C 126.363 281.117,126.073 281.193,126.427 281.285 M131.492 282.119 C 131.796 282.325,132.362 282.496,132.750 282.499 C 133.692 282.506,133.399 282.296,132.044 281.993 C 131.237 281.812,131.088 281.846,131.492 282.119 M257.551 282.400 C 258.108 282.484,259.019 282.484,259.576 282.400 C 260.134 282.316,259.678 282.247,258.564 282.247 C 257.449 282.247,256.994 282.316,257.551 282.400 M250.645 283.241 C 249.706 283.645,250.674 283.645,251.934 283.241 C 252.674 283.004,252.710 282.944,252.118 282.936 C 251.713 282.930,251.050 283.067,250.645 283.241 M283.978 284.162 C 284.665 284.871,285.310 285.451,285.412 285.451 C 285.513 285.451,285.033 284.871,284.346 284.162 C 283.659 283.453,283.014 282.873,282.913 282.873 C 282.811 282.873,283.291 283.453,283.978 284.162 M350.460 283.872 C 349.332 284.144,348.986 284.648,350.070 284.441 C 350.594 284.340,351.114 284.112,351.224 283.934 C 351.334 283.756,351.373 283.629,351.311 283.652 C 351.248 283.676,350.866 283.775,350.460 283.872 M139.626 284.110 C 139.710 284.183,140.276 284.354,140.884 284.490 C 141.691 284.670,141.840 284.636,141.436 284.363 C 140.939 284.026,139.256 283.792,139.626 284.110 M245.396 284.232 C 245.750 284.324,246.331 284.324,246.685 284.232 C 247.040 284.139,246.750 284.063,246.041 284.063 C 245.331 284.063,245.041 284.139,245.396 284.232 M344.015 285.083 L 341.252 285.318 343.831 285.379 C 345.249 285.413,346.657 285.279,346.961 285.083 C 347.265 284.886,347.348 284.753,347.145 284.787 C 346.943 284.820,345.534 284.953,344.015 285.083 M234.070 286.819 C 232.942 287.090,232.595 287.594,233.679 287.387 C 234.204 287.287,234.724 287.059,234.834 286.881 C 234.944 286.702,234.983 286.575,234.920 286.599 C 234.858 286.622,234.475 286.721,234.070 286.819 M369.823 289.973 C 368.206 291.762,367.804 292.323,368.840 291.344 C 370.431 289.841,372.985 286.911,372.683 286.934 C 372.615 286.939,371.328 288.306,369.823 289.973 M318.785 290.608 C 319.782 291.621,320.681 292.449,320.783 292.449 C 320.884 292.449,320.151 291.621,319.153 290.608 C 318.155 289.595,317.256 288.766,317.155 288.766 C 317.053 288.766,317.787 289.595,318.785 290.608 M81.492 294.196 C 82.859 294.267,85.097 294.267,86.464 294.196 C 87.831 294.125,86.713 294.067,83.978 294.067 C 81.243 294.067,80.124 294.125,81.492 294.196 M97.145 294.196 C 98.614 294.266,101.017 294.266,102.486 294.196 C 103.955 294.126,102.753 294.069,99.816 294.069 C 96.878 294.069,95.677 294.126,97.145 294.196 M70.630 294.920 C 71.089 295.008,71.752 295.005,72.104 294.912 C 72.456 294.820,72.081 294.748,71.271 294.752 C 70.460 294.756,70.172 294.832,70.630 294.920 M112.339 295.028 C 113.598 295.431,114.567 295.431,113.628 295.028 C 113.223 294.854,112.560 294.716,112.155 294.722 C 111.563 294.731,111.599 294.791,112.339 295.028 M61.418 296.024 C 61.874 296.112,62.620 296.112,63.076 296.024 C 63.531 295.936,63.158 295.865,62.247 295.865 C 61.335 295.865,60.962 295.936,61.418 296.024 M119.249 296.025 C 119.707 296.113,120.370 296.110,120.723 296.017 C 121.075 295.925,120.700 295.853,119.890 295.857 C 119.079 295.861,118.791 295.937,119.249 296.025 M124.494 296.874 C 124.797 297.068,125.529 297.229,126.120 297.232 C 127.545 297.239,127.235 297.027,125.414 296.748 C 124.411 296.594,124.117 296.634,124.494 296.874 M269.318 297.143 C 271.081 297.211,274.064 297.211,275.948 297.144 C 277.832 297.077,276.390 297.022,272.744 297.021 C 269.098 297.021,267.556 297.076,269.318 297.143 M132.686 298.555 C 132.808 298.676,133.520 298.914,134.270 299.083 C 135.020 299.252,135.489 299.259,135.312 299.099 C 134.939 298.761,132.358 298.226,132.686 298.555 M250.111 299.060 C 249.766 299.278,250.156 299.323,251.216 299.187 C 252.117 299.072,252.924 298.918,253.008 298.844 C 253.353 298.544,250.603 298.748,250.111 299.060 M334.807 299.811 C 335.110 300.010,335.760 300.175,336.249 300.179 C 337.431 300.186,337.132 299.977,335.543 299.685 C 334.636 299.519,334.418 299.556,334.807 299.811 M342.647 300.825 C 343.819 300.898,345.642 300.898,346.699 300.824 C 347.755 300.749,346.796 300.689,344.567 300.690 C 342.339 300.691,341.475 300.752,342.647 300.825 M167.189 313.578 C 167.679 314.182,169.061 315.095,169.061 314.815 C 169.061 314.745,168.522 314.293,167.864 313.811 C 167.123 313.269,166.866 313.180,167.189 313.578 M340.169 314.641 C 339.681 316.255,339.330 318.273,339.583 318.002 C 339.911 317.652,340.707 314.180,340.459 314.180 C 340.376 314.180,340.246 314.388,340.169 314.641 M354.512 322.467 C 354.512 325.973,354.636 328.766,354.788 328.672 C 355.145 328.452,355.140 317.079,354.783 316.517 C 354.634 316.283,354.512 318.960,354.512 322.467 M172.928 318.232 C 173.719 319.042,174.450 319.705,174.551 319.705 C 174.652 319.705,174.088 319.042,173.297 318.232 C 172.505 317.422,171.775 316.759,171.674 316.759 C 171.572 316.759,172.137 317.422,172.928 318.232 M149.448 318.133 C 150.308 318.211,151.717 318.211,152.578 318.133 C 153.439 318.056,152.735 317.992,151.013 317.992 C 149.291 317.992,148.587 318.056,149.448 318.133 M229.225 318.146 C 228.843 318.389,282.393 318.383,321.915 318.135 C 330.322 318.083,313.002 318.003,283.425 317.957 C 253.849 317.912,229.459 317.997,229.225 318.146 M70.789 318.507 C 73.359 318.570,77.669 318.570,80.365 318.507 C 83.061 318.444,80.958 318.393,75.691 318.393 C 70.424 318.392,68.218 318.444,70.789 318.507 M157.833 318.978 C 157.925 319.127,158.412 319.328,158.915 319.424 C 159.419 319.520,159.755 319.477,159.663 319.328 C 159.571 319.179,159.083 318.978,158.580 318.882 C 158.077 318.786,157.740 318.829,157.833 318.978 M215.999 324.954 L 214.917 326.151 216.114 325.069 C 216.773 324.474,217.311 323.936,217.311 323.872 C 217.311 323.588,217.007 323.838,215.999 324.954 M179.006 324.240 C 179.006 324.304,179.544 324.843,180.203 325.438 L 181.400 326.519 180.318 325.322 C 179.309 324.206,179.006 323.956,179.006 324.240 M169.764 327.378 C 169.963 327.750,170.415 328.288,170.769 328.575 C 171.166 328.899,171.077 328.641,170.535 327.901 C 169.568 326.579,169.205 326.333,169.764 327.378 M199.887 329.478 C 199.319 329.978,199.000 330.387,199.179 330.387 C 199.357 330.387,199.893 329.972,200.368 329.466 C 201.469 328.294,201.226 328.300,199.887 329.478 M352.647 331.584 L 351.565 332.781 352.762 331.699 C 353.421 331.104,353.959 330.565,353.959 330.502 C 353.959 330.217,353.656 330.468,352.647 331.584 M61.234 333.978 C 77.997 334.031,105.428 334.031,122.192 333.978 C 138.955 333.925,125.239 333.882,91.713 333.882 C 58.186 333.882,44.471 333.925,61.234 333.978 M230.812 333.978 C 230.658 334.228,271.309 334.226,327.993 333.975 C 339.742 333.922,322.722 333.840,290.169 333.791 C 257.617 333.742,230.906 333.826,230.812 333.978 M153.959 334.540 C 153.959 334.611,154.498 335.062,155.157 335.544 C 155.897 336.087,156.155 336.176,155.831 335.778 C 155.341 335.174,153.959 334.261,153.959 334.540 M228.105 335.386 L 227.072 336.334 228.269 335.501 C 228.927 335.043,229.466 334.616,229.466 334.553 C 229.466 334.262,229.059 334.512,228.105 335.386 M187.293 339.595 C 187.698 339.769,188.361 339.907,188.766 339.901 C 189.358 339.892,189.322 339.832,188.582 339.595 C 187.323 339.192,186.354 339.192,187.293 339.595 M159.776 340.884 C 159.986 341.289,160.711 342.118,161.386 342.725 L 162.615 343.829 161.327 342.357 C 160.619 341.547,159.894 340.718,159.717 340.516 C 159.539 340.313,159.566 340.479,159.776 340.884 M162.799 344.130 C 162.799 344.193,163.338 344.732,163.996 345.327 L 165.193 346.409 164.112 345.212 C 163.103 344.096,162.799 343.845,162.799 344.130 M217.680 346.661 C 216.768 347.492,216.354 347.997,216.759 347.782 C 217.452 347.416,219.846 345.102,219.498 345.135 C 219.409 345.143,218.591 345.830,217.680 346.661 M205.617 353.234 C 204.384 353.730,204.614 353.982,205.893 353.536 C 206.501 353.324,206.998 353.084,206.998 353.003 C 206.998 352.784,206.550 352.859,205.617 353.234 M185.175 355.324 C 185.631 355.412,186.377 355.412,186.832 355.324 C 187.288 355.237,186.915 355.165,186.004 355.165 C 185.092 355.165,184.719 355.237,185.175 355.324 M197.702 355.325 C 198.160 355.413,198.823 355.410,199.176 355.318 C 199.528 355.225,199.153 355.153,198.343 355.157 C 197.532 355.161,197.244 355.237,197.702 355.325 " stroke="none" fill="#717472" fill-rule="evenodd"></path><path id="path4" d="M337.242 20.191 C 337.139 20.357,337.544 20.421,338.141 20.334 C 338.738 20.246,339.227 20.110,339.227 20.032 C 339.227 19.751,337.424 19.896,337.242 20.191 M348.435 20.032 C 348.435 20.110,348.923 20.246,349.520 20.334 C 350.117 20.421,350.522 20.357,350.419 20.191 C 350.237 19.896,348.435 19.751,348.435 20.032 M334.254 20.889 C 333.126 21.160,332.779 21.664,333.863 21.457 C 334.388 21.357,334.908 21.129,335.018 20.950 C 335.128 20.772,335.167 20.645,335.105 20.669 C 335.042 20.692,334.659 20.791,334.254 20.889 M300.276 49.629 C 301.846 49.698,304.415 49.698,305.985 49.629 C 307.555 49.560,306.271 49.504,303.131 49.504 C 299.991 49.504,298.706 49.560,300.276 49.629 M324.267 50.623 C 324.155 50.915,324.128 51.454,324.207 51.820 C 324.297 52.236,324.423 52.037,324.543 51.289 C 324.743 50.035,324.613 49.720,324.267 50.623 M363.621 52.302 C 363.621 53.011,363.697 53.301,363.790 52.947 C 363.882 52.592,363.882 52.012,363.790 51.657 C 363.697 51.303,363.621 51.593,363.621 52.302 M379.835 59.853 C 379.839 60.663,379.915 60.951,380.003 60.493 C 380.091 60.035,380.087 59.372,379.995 59.020 C 379.903 58.667,379.831 59.042,379.835 59.853 M378.867 64.655 C 378.741 64.984,378.654 65.613,378.675 66.052 C 378.699 66.557,378.824 66.378,379.015 65.564 C 379.337 64.195,379.249 63.659,378.867 64.655 M302.183 65.838 C 306.684 65.913,308.970 66.091,309.365 66.399 C 309.876 66.798,309.885 66.775,309.439 66.206 C 308.986 65.629,308.238 65.570,302.257 65.645 L 295.580 65.728 302.183 65.838 M281.450 78.699 C 281.422 79.138,281.304 79.801,281.188 80.172 C 280.987 80.811,280.998 80.812,281.396 80.192 C 281.627 79.832,281.745 79.169,281.658 78.719 C 281.500 77.901,281.500 77.901,281.450 78.699 M339.687 92.703 C 340.041 92.796,340.622 92.796,340.976 92.703 C 341.331 92.611,341.041 92.535,340.331 92.535 C 339.622 92.535,339.332 92.611,339.687 92.703 M347.058 92.714 C 347.618 92.798,348.447 92.796,348.900 92.709 C 349.353 92.621,348.895 92.552,347.882 92.555 C 346.869 92.557,346.499 92.629,347.058 92.714 M87.661 99.831 C 86.865 100.009,87.428 100.042,89.134 99.919 C 90.654 99.810,91.966 99.659,92.050 99.584 C 92.318 99.346,89.003 99.533,87.661 99.831 M109.858 99.712 C 110.418 99.796,111.246 99.794,111.699 99.707 C 112.152 99.619,111.694 99.550,110.681 99.553 C 109.669 99.556,109.298 99.627,109.858 99.712 M68.052 101.918 C 68.510 102.006,69.173 102.003,69.525 101.911 C 69.878 101.818,69.503 101.746,68.692 101.750 C 67.882 101.754,67.594 101.830,68.052 101.918 M131.036 101.918 C 131.494 102.006,132.157 102.003,132.509 101.911 C 132.861 101.818,132.486 101.746,131.676 101.750 C 130.866 101.754,130.577 101.830,131.036 101.918 M56.211 103.801 C 56.108 103.967,56.513 104.031,57.110 103.943 C 57.707 103.855,58.195 103.720,58.195 103.641 C 58.195 103.361,56.393 103.505,56.211 103.801 M144.015 104.587 C 144.319 104.793,144.885 104.964,145.273 104.967 C 146.216 104.974,145.922 104.763,144.567 104.461 C 143.760 104.280,143.611 104.314,144.015 104.587 M251.193 109.099 C 251.094 110.660,251.145 111.804,251.307 111.641 C 251.469 111.478,251.550 110.201,251.488 108.803 L 251.374 106.262 251.193 109.099 M89.238 115.925 C 90.206 116.001,91.698 116.000,92.553 115.923 C 93.407 115.846,92.615 115.783,90.792 115.785 C 88.969 115.786,88.269 115.849,89.238 115.925 M109.681 115.926 C 110.751 116.000,112.409 116.000,113.364 115.924 C 114.320 115.848,113.444 115.787,111.418 115.788 C 109.392 115.789,108.611 115.851,109.681 115.926 M77.440 117.013 C 77.795 117.105,78.375 117.105,78.729 117.013 C 79.084 116.920,78.794 116.844,78.085 116.844 C 77.376 116.844,77.086 116.920,77.440 117.013 M133.364 118.732 C 133.448 118.805,134.180 118.966,134.991 119.090 C 135.994 119.244,136.288 119.204,135.912 118.964 C 135.408 118.643,133.006 118.425,133.364 118.732 M188.485 127.804 C 190.727 130.128,190.798 130.169,191.432 129.478 C 192.053 128.800,192.053 128.791,191.417 129.271 C 190.823 129.720,190.514 129.545,188.470 127.597 L 186.188 125.422 188.485 127.804 M341.544 126.240 C 342.920 126.311,345.074 126.311,346.332 126.239 C 347.590 126.167,346.464 126.109,343.831 126.110 C 341.197 126.111,340.168 126.169,341.544 126.240 M35.429 128.084 C 38.000 128.147,42.310 128.147,45.006 128.084 C 47.702 128.021,45.599 127.969,40.331 127.969 C 35.064 127.969,32.859 128.020,35.429 128.084 M369.414 137.109 C 370.317 138.071,371.104 138.858,371.163 138.858 C 371.440 138.858,371.147 138.528,369.521 137.001 L 367.772 135.359 369.414 137.109 M177.901 140.147 C 178.588 140.856,179.233 141.436,179.334 141.436 C 179.435 141.436,178.956 140.856,178.269 140.147 C 177.582 139.438,176.937 138.858,176.835 138.858 C 176.734 138.858,177.213 139.438,177.901 140.147 M41.435 231.031 L 41.436 318.048 43.831 318.073 L 46.225 318.098 43.923 317.964 L 41.622 317.830 41.528 230.922 L 41.434 144.015 41.435 231.031 M328.894 148.711 L 327.624 150.092 329.006 148.823 C 330.291 147.641,330.556 147.330,330.275 147.330 C 330.213 147.330,329.592 147.951,328.894 148.711 M243.559 152.382 C 244.119 152.467,244.948 152.465,245.401 152.377 C 245.854 152.290,245.396 152.220,244.383 152.223 C 243.370 152.226,243.000 152.298,243.559 152.382 M363.621 158.748 C 363.621 159.457,363.697 159.747,363.790 159.392 C 363.882 159.038,363.882 158.458,363.790 158.103 C 363.697 157.749,363.621 158.039,363.621 158.748 M324.125 167.382 C 324.125 167.876,324.261 168.365,324.427 168.467 C 324.593 168.570,324.657 168.165,324.569 167.568 C 324.376 166.252,324.125 166.146,324.125 167.382 M357.815 176.888 L 355.617 179.190 357.919 176.991 C 359.185 175.782,360.221 174.746,360.221 174.689 C 360.221 174.417,359.857 174.749,357.815 176.888 M213.738 183.057 C 213.738 184.171,213.807 184.627,213.892 184.070 C 213.976 183.513,213.976 182.601,213.892 182.044 C 213.807 181.487,213.738 181.943,213.738 183.057 M339.246 182.340 C 339.738 182.651,342.488 182.856,342.142 182.555 C 342.058 182.482,341.252 182.327,340.351 182.212 C 339.291 182.077,338.901 182.122,339.246 182.340 M347.514 182.320 L 346.041 182.584 347.400 182.636 C 348.148 182.665,348.862 182.523,348.987 182.320 C 349.112 182.118,349.164 181.976,349.101 182.004 C 349.038 182.033,348.324 182.175,347.514 182.320 M213.428 200.552 C 213.428 208.656,213.476 211.918,213.536 207.802 C 213.595 203.687,213.595 197.057,213.535 193.069 C 213.476 189.082,213.427 192.449,213.428 200.552 M337.753 198.510 C 338.057 198.716,338.623 198.886,339.012 198.889 C 339.954 198.897,339.660 198.686,338.306 198.383 C 337.499 198.203,337.350 198.237,337.753 198.510 M229.691 216.022 C 229.994 217.376,230.204 217.670,230.197 216.728 C 230.194 216.340,230.023 215.773,229.817 215.470 C 229.544 215.066,229.510 215.215,229.691 216.022 M213.728 217.680 C 213.728 218.591,213.800 218.964,213.888 218.508 C 213.976 218.052,213.976 217.307,213.888 216.851 C 213.800 216.395,213.728 216.768,213.728 217.680 M341.544 228.266 C 342.920 228.337,345.074 228.337,346.332 228.265 C 347.590 228.193,346.464 228.135,343.831 228.136 C 341.197 228.136,340.168 228.195,341.544 228.266 M224.309 238.789 C 224.309 238.853,224.848 239.391,225.506 239.986 L 226.703 241.068 225.622 239.871 C 224.613 238.755,224.309 238.505,224.309 238.789 M283.241 240.700 C 283.928 241.409,284.574 241.989,284.675 241.989 C 284.776 241.989,284.297 241.409,283.610 240.700 C 282.922 239.991,282.277 239.411,282.176 239.411 C 282.075 239.411,282.554 239.991,283.241 240.700 M240.839 247.985 C 241.017 248.163,241.639 248.249,242.220 248.176 C 243.194 248.055,243.168 248.029,241.897 247.853 C 241.105 247.743,240.654 247.800,240.839 247.985 M272.192 252.855 C 272.879 253.564,273.524 254.144,273.625 254.144 C 273.726 254.144,273.247 253.564,272.560 252.855 C 271.873 252.145,271.228 251.565,271.126 251.565 C 271.025 251.565,271.504 252.145,272.192 252.855 M301.733 254.416 C 303.092 254.487,305.412 254.488,306.890 254.417 C 308.368 254.347,307.256 254.290,304.420 254.289 C 301.584 254.288,300.375 254.346,301.733 254.416 M324.267 259.463 C 324.155 259.755,324.128 260.294,324.207 260.660 C 324.297 261.076,324.423 260.876,324.543 260.129 C 324.743 258.875,324.613 258.560,324.267 259.463 M379.621 260.589 C 379.900 262.410,380.112 262.720,380.105 261.295 C 380.102 260.704,379.941 259.972,379.747 259.669 C 379.507 259.292,379.467 259.586,379.621 260.589 M379.804 268.570 C 379.770 269.313,379.647 270.225,379.530 270.596 C 379.331 271.231,379.343 271.233,379.736 270.620 C 379.966 270.262,380.089 269.350,380.010 268.594 L 379.866 267.219 379.804 268.570 M363.621 268.877 C 363.621 269.586,363.697 269.876,363.790 269.521 C 363.882 269.167,363.882 268.587,363.790 268.232 C 363.697 267.878,363.621 268.168,363.621 268.877 M292.480 269.377 C 292.564 269.450,293.131 269.621,293.738 269.757 C 294.545 269.937,294.694 269.903,294.291 269.630 C 293.794 269.294,292.110 269.059,292.480 269.377 M298.100 270.436 C 298.335 270.585,300.847 270.682,303.683 270.651 C 309.361 270.589,308.619 270.422,301.967 270.266 C 299.605 270.211,297.865 270.288,298.100 270.436 M309.024 274.196 C 309.024 274.690,309.160 275.179,309.326 275.281 C 309.492 275.384,309.556 274.979,309.468 274.382 C 309.275 273.066,309.024 272.960,309.024 274.196 M378.843 273.757 C 378.460 275.016,378.368 275.857,378.629 275.696 C 378.789 275.597,378.994 275.016,379.083 274.406 C 379.247 273.290,379.103 272.900,378.843 273.757 M72.828 278.719 C 73.482 278.800,74.642 278.802,75.406 278.722 C 76.170 278.642,75.635 278.576,74.217 278.574 C 72.799 278.572,72.174 278.638,72.828 278.719 M108.924 278.719 C 109.578 278.800,110.738 278.802,111.502 278.722 C 112.266 278.642,111.731 278.576,110.313 278.574 C 108.895 278.572,108.270 278.638,108.924 278.719 M130.110 281.654 C 130.465 281.746,131.045 281.746,131.400 281.654 C 131.754 281.561,131.464 281.485,130.755 281.485 C 130.046 281.485,129.756 281.561,130.110 281.654 M263.091 281.673 C 264.467 281.744,266.621 281.744,267.879 281.672 C 269.137 281.600,268.011 281.542,265.378 281.543 C 262.744 281.543,261.715 281.602,263.091 281.673 M347.882 284.346 L 346.777 284.627 347.768 284.671 C 348.313 284.695,348.862 284.549,348.987 284.346 C 349.112 284.144,349.164 283.998,349.101 284.021 C 349.038 284.045,348.490 284.192,347.882 284.346 M344.664 284.975 C 345.122 285.063,345.785 285.060,346.137 284.968 C 346.489 284.875,346.114 284.803,345.304 284.807 C 344.494 284.812,344.205 284.887,344.664 284.975 M286.184 289.394 C 286.085 291.056,286.136 292.283,286.297 292.121 C 286.459 291.958,286.540 290.598,286.478 289.099 L 286.365 286.372 286.184 289.394 M318.785 290.976 C 319.987 292.192,321.054 293.186,321.156 293.186 C 321.257 293.186,320.356 292.192,319.153 290.976 C 317.950 289.761,316.883 288.766,316.782 288.766 C 316.681 288.766,317.582 289.761,318.785 290.976 M77.532 294.659 L 76.059 294.923 77.348 294.939 C 78.057 294.947,79.052 294.821,79.558 294.659 C 80.741 294.280,79.649 294.280,77.532 294.659 M104.604 294.641 C 105.524 294.954,107.810 295.150,107.520 294.891 C 107.436 294.815,106.538 294.658,105.525 294.541 C 104.283 294.398,103.983 294.430,104.604 294.641 M65.009 295.761 C 64.551 295.955,65.038 295.996,66.298 295.867 C 67.413 295.754,68.393 295.601,68.478 295.529 C 68.795 295.255,65.715 295.461,65.009 295.761 M114.211 295.528 C 114.296 295.601,115.193 295.756,116.206 295.873 C 117.391 296.010,117.785 295.972,117.311 295.767 C 116.608 295.462,113.892 295.253,114.211 295.528 M54.840 296.610 C 55.002 296.771,56.445 296.852,58.046 296.791 L 60.958 296.679 57.751 296.498 C 55.988 296.398,54.678 296.449,54.840 296.610 M264.088 297.606 L 262.431 297.864 263.904 297.893 C 264.715 297.909,265.709 297.780,266.114 297.606 C 266.968 297.239,266.447 297.239,264.088 297.606 M130.755 298.485 C 130.755 298.563,131.244 298.699,131.841 298.787 C 132.438 298.874,132.842 298.810,132.740 298.644 C 132.557 298.349,130.755 298.204,130.755 298.485 M255.157 298.602 C 255.612 298.690,256.358 298.690,256.814 298.602 C 257.270 298.515,256.897 298.443,255.985 298.443 C 255.074 298.443,254.701 298.515,255.157 298.602 M342.827 301.191 C 343.694 301.269,345.020 301.268,345.774 301.189 C 346.528 301.109,345.820 301.046,344.199 301.047 C 342.578 301.048,341.961 301.113,342.827 301.191 M180.847 304.052 C 181.534 304.761,182.179 305.341,182.281 305.341 C 182.382 305.341,181.903 304.761,181.215 304.052 C 180.528 303.343,179.883 302.762,179.782 302.762 C 179.681 302.762,180.160 303.343,180.847 304.052 M344.475 310.751 C 344.830 310.844,345.410 310.844,345.764 310.751 C 346.119 310.658,345.829 310.583,345.120 310.583 C 344.411 310.583,344.121 310.658,344.475 310.751 M347.610 310.758 C 348.068 310.846,348.731 310.842,349.083 310.750 C 349.436 310.658,349.061 310.586,348.250 310.590 C 347.440 310.594,347.152 310.670,347.610 310.758 M201.822 328.085 L 200.552 329.466 201.934 328.197 C 203.219 327.015,203.484 326.703,203.203 326.703 C 203.141 326.703,202.520 327.325,201.822 328.085 M352.647 331.952 L 351.565 333.149 352.762 332.067 C 353.421 331.472,353.959 330.934,353.959 330.870 C 353.959 330.586,353.656 330.836,352.647 331.952 M162.799 344.567 C 163.486 345.276,164.132 345.856,164.233 345.856 C 164.334 345.856,163.855 345.276,163.168 344.567 C 162.480 343.858,161.835 343.278,161.734 343.278 C 161.633 343.278,162.112 343.858,162.799 344.567 M181.614 354.828 C 181.699 354.901,182.265 355.072,182.873 355.208 C 183.680 355.388,183.829 355.354,183.425 355.081 C 182.928 354.745,181.245 354.510,181.614 354.828 M189.779 356.074 C 191.146 356.145,193.384 356.145,194.751 356.074 C 196.119 356.003,195.000 355.945,192.265 355.945 C 189.530 355.945,188.412 356.003,189.779 356.074 " stroke="none" fill="#bcbcba" fill-rule="evenodd"></path></g></svg>